<mxfile host="app.diagrams.net" modified="2024-04-10T16:33:39.578Z" agent="Mozilla/5.0 (Windows NT 10.0; Win64; x64) AppleWebKit/537.36 (KHTML, like Gecko) Chrome/123.0.0.0 Safari/537.36" etag="aDanFQ-mCYYhRWz0MOeD" version="24.2.3" type="google" pages="6">
  <diagram name="Revision 1" id="sA45Y9J8CzaZupYKlrm7">
    <mxGraphModel grid="1" page="1" gridSize="10" guides="1" tooltips="1" connect="1" arrows="1" fold="1" pageScale="1" pageWidth="850" pageHeight="1100" math="0" shadow="0">
      <root>
        <mxCell id="lt3hffubJMbixq_gVFom-0" />
        <mxCell id="lt3hffubJMbixq_gVFom-1" parent="lt3hffubJMbixq_gVFom-0" />
        <mxCell id="lt3hffubJMbixq_gVFom-2" value="&lt;div style=&quot;box-sizing:border-box;width:100%;background:#e4e4e4;padding:2px;&quot;&gt;companies&lt;/div&gt;&lt;table style=&quot;width:100%;font-size:1em;&quot; cellpadding=&quot;2&quot; cellspacing=&quot;0&quot;&gt;&lt;tbody&gt;&lt;tr&gt;&lt;td&gt;PK&lt;/td&gt;&lt;td&gt;id&lt;/td&gt;&lt;td&gt;bigint&lt;br&gt;&lt;/td&gt;&lt;td&gt;&lt;br&gt;&lt;/td&gt;&lt;/tr&gt;&lt;tr&gt;&lt;td&gt;&lt;/td&gt;&lt;td&gt;companyName&lt;br&gt;&lt;/td&gt;&lt;td&gt;varchar(100)&lt;br&gt;&lt;/td&gt;&lt;td&gt;&lt;br&gt;&lt;/td&gt;&lt;/tr&gt;&lt;tr&gt;&lt;td&gt;&lt;br&gt;&lt;/td&gt;&lt;td&gt;symbol&lt;br&gt;&lt;/td&gt;&lt;td&gt;varchar(10)&lt;br&gt;&lt;/td&gt;&lt;td&gt;&lt;br&gt;&lt;/td&gt;&lt;/tr&gt;&lt;/tbody&gt;&lt;/table&gt;" style="verticalAlign=top;align=left;overflow=fill;html=1;whiteSpace=wrap;" vertex="1" parent="lt3hffubJMbixq_gVFom-1">
          <mxGeometry x="-390" y="140" width="220" height="80" as="geometry" />
        </mxCell>
        <mxCell id="lt3hffubJMbixq_gVFom-3" style="edgeStyle=orthogonalEdgeStyle;rounded=0;orthogonalLoop=1;jettySize=auto;html=1;endSize=16;startSize=16;endArrow=ERmany;endFill=0;startArrow=ERone;startFill=0;exitX=-0.002;exitY=0.112;exitDx=0;exitDy=0;exitPerimeter=0;entryX=1.003;entryY=0.139;entryDx=0;entryDy=0;entryPerimeter=0;" edge="1" parent="lt3hffubJMbixq_gVFom-1" source="lt3hffubJMbixq_gVFom-4" target="LTzR59cLbCJcX3TOYGGQ-2">
          <mxGeometry relative="1" as="geometry">
            <mxPoint x="-150" y="750" as="sourcePoint" />
            <mxPoint x="-600" y="740" as="targetPoint" />
            <Array as="points" />
          </mxGeometry>
        </mxCell>
        <mxCell id="lt3hffubJMbixq_gVFom-4" value="&lt;div style=&quot;box-sizing:border-box;width:100%;background:#e4e4e4;padding:2px;&quot;&gt;indexes&lt;/div&gt;&lt;table style=&quot;width:100%;font-size:1em;&quot; cellpadding=&quot;2&quot; cellspacing=&quot;0&quot;&gt;&lt;tbody&gt;&lt;tr&gt;&lt;td&gt;PK&lt;/td&gt;&lt;td&gt;id&lt;/td&gt;&lt;td&gt;bigint&lt;br&gt;&lt;/td&gt;&lt;/tr&gt;&lt;tr&gt;&lt;td&gt;&lt;br&gt;&lt;/td&gt;&lt;td&gt;indexName&lt;/td&gt;&lt;td&gt;varchar(30)&lt;br&gt;&lt;/td&gt;&lt;/tr&gt;&lt;tr&gt;&lt;td&gt;&lt;/td&gt;&lt;td&gt;symbol&lt;/td&gt;&lt;td&gt;varchar(10)&lt;br&gt;&lt;/td&gt;&lt;/tr&gt;&lt;/tbody&gt;&lt;/table&gt;" style="verticalAlign=top;align=left;overflow=fill;html=1;whiteSpace=wrap;" vertex="1" parent="lt3hffubJMbixq_gVFom-1">
          <mxGeometry x="-480" y="730" width="170" height="90" as="geometry" />
        </mxCell>
        <mxCell id="lt3hffubJMbixq_gVFom-5" value="&lt;div style=&quot;box-sizing:border-box;width:100%;background:#e4e4e4;padding:2px;&quot;&gt;commodities&lt;/div&gt;&lt;table style=&quot;width:100%;font-size:1em;&quot; cellpadding=&quot;2&quot; cellspacing=&quot;0&quot;&gt;&lt;tbody&gt;&lt;tr&gt;&lt;td&gt;PK&lt;/td&gt;&lt;td&gt;id&lt;/td&gt;&lt;td&gt;bigint&lt;br&gt;&lt;/td&gt;&lt;/tr&gt;&lt;tr&gt;&lt;td&gt;&lt;br&gt;&lt;/td&gt;&lt;td&gt;commodityName&lt;/td&gt;&lt;td&gt;varchar(30)&lt;br&gt;&lt;/td&gt;&lt;/tr&gt;&lt;tr&gt;&lt;td&gt;&lt;/td&gt;&lt;td&gt;symbol&lt;/td&gt;&lt;td&gt;varchar(10)&lt;br&gt;&lt;/td&gt;&lt;/tr&gt;&lt;/tbody&gt;&lt;/table&gt;" style="verticalAlign=top;align=left;overflow=fill;html=1;whiteSpace=wrap;" vertex="1" parent="lt3hffubJMbixq_gVFom-1">
          <mxGeometry x="-230" y="870" width="205" height="90" as="geometry" />
        </mxCell>
        <mxCell id="lt3hffubJMbixq_gVFom-7" value="&lt;div style=&quot;box-sizing:border-box;width:100%;background:#e4e4e4;padding:2px;&quot;&gt;historical_stock_values&lt;/div&gt;&lt;table style=&quot;width:100%;font-size:1em;&quot; cellpadding=&quot;2&quot; cellspacing=&quot;0&quot;&gt;&lt;tbody&gt;&lt;tr&gt;&lt;td&gt;PK, FK&lt;br&gt;&lt;/td&gt;&lt;td&gt;company_id&lt;/td&gt;&lt;td&gt;bigint&lt;br&gt;&lt;/td&gt;&lt;/tr&gt;&lt;tr&gt;&lt;td&gt;PK&lt;/td&gt;&lt;td&gt;date&lt;br&gt;&lt;/td&gt;&lt;td&gt;datetime&lt;br&gt;&lt;/td&gt;&lt;/tr&gt;&lt;tr&gt;&lt;td&gt;&lt;/td&gt;&lt;td&gt;open&lt;br&gt;&lt;/td&gt;&lt;td&gt;decimal&lt;br&gt;&lt;/td&gt;&lt;/tr&gt;&lt;tr&gt;&lt;td&gt;&lt;br&gt;&lt;/td&gt;&lt;td&gt;high&lt;br&gt;low&lt;/td&gt;&lt;td&gt;decimal&lt;br&gt;decimal&lt;/td&gt;&lt;/tr&gt;&lt;tr&gt;&lt;td&gt;&lt;br&gt;&lt;/td&gt;&lt;td&gt;close&lt;br&gt;adjClose&lt;br&gt;volume&lt;br&gt;unadjustedVolume&lt;br&gt;change&lt;br&gt;changePercentage&lt;br&gt;vwap&lt;br&gt;changeOverTime&lt;/td&gt;&lt;td&gt;decimal&lt;br&gt;decimal&lt;br&gt;bigint&lt;br&gt;bigint&lt;br&gt;decimal&lt;br&gt;decimal&lt;br&gt;decimal&lt;br&gt;decimal&lt;/td&gt;&lt;/tr&gt;&lt;/tbody&gt;&lt;/table&gt;" style="verticalAlign=top;align=left;overflow=fill;html=1;whiteSpace=wrap;" vertex="1" parent="lt3hffubJMbixq_gVFom-1">
          <mxGeometry x="-840" y="430" width="230" height="240" as="geometry" />
        </mxCell>
        <mxCell id="lt3hffubJMbixq_gVFom-9" value="&lt;div style=&quot;box-sizing:border-box;width:100%;background:#e4e4e4;padding:2px;&quot;&gt;company_statements&lt;/div&gt;&lt;table style=&quot;width:100%;font-size:1em;&quot; cellpadding=&quot;2&quot; cellspacing=&quot;0&quot;&gt;&lt;tbody&gt;&lt;tr&gt;&lt;td&gt;PK, FK&lt;br&gt;&lt;/td&gt;&lt;td&gt;company_id&lt;br&gt;&lt;/td&gt;&lt;td&gt;bigint&lt;br&gt;&lt;/td&gt;&lt;/tr&gt;&lt;tr&gt;&lt;td&gt;PK&lt;br&gt;&lt;/td&gt;&lt;td&gt;date&lt;/td&gt;&lt;td&gt;datetime&lt;br&gt;&lt;/td&gt;&lt;/tr&gt;&lt;tr&gt;&lt;td&gt;&lt;/td&gt;&lt;td&gt;price&lt;/td&gt;&lt;td&gt;decimal&lt;/td&gt;&lt;/tr&gt;&lt;tr&gt;&lt;td&gt;&lt;/td&gt;&lt;td&gt;beta&lt;br&gt;volAvg&lt;br&gt;mktCap&lt;br&gt;lastDiv&lt;br&gt;changes&lt;br&gt;currency&lt;br&gt;cik&lt;br&gt;isin&lt;br&gt;cusip&lt;br&gt;exchangeFullName&lt;br&gt;exchange&lt;br&gt;industry&lt;br&gt;ceo&lt;br&gt;sector&lt;br&gt;country&lt;br&gt;fullTimeEmployees&lt;br&gt;phone&lt;br&gt;address&lt;br&gt;city&lt;br&gt;state&lt;br&gt;zip&lt;br&gt;dcfDiff&lt;br&gt;dcf&lt;br&gt;ipoDate&lt;br&gt;isEtf&lt;br&gt;isActivelyTrading&lt;br&gt;isAdr&lt;br&gt;isFund&lt;/td&gt;&lt;td&gt;decimal&lt;br&gt;decimal&lt;br&gt;bigint&lt;br&gt;decimal&lt;br&gt;decimal&lt;br&gt;varchar(3)&lt;br&gt;varchar(16)&lt;br&gt;varchar(16)&lt;br&gt;varchar(16)&lt;br&gt;varchar(100)&lt;br&gt;varchar(20)&lt;br&gt;varchar(100)&lt;br&gt;varchar(200)&lt;br&gt;varchar(100)&lt;br&gt;varchar(100)&lt;br&gt;bigint&lt;br&gt;varchar(16)&lt;br&gt;varchar(200)&lt;br&gt;varchar(200)&lt;br&gt;varchar(100)&lt;br&gt;varchar(16)&lt;br&gt;decimal&lt;br&gt;decimal&lt;br&gt;datetime&lt;br&gt;boolean&lt;br&gt;boolean&lt;br&gt;boolean&lt;br&gt;boolean&lt;/td&gt;&lt;/tr&gt;&lt;/tbody&gt;&lt;/table&gt;" style="verticalAlign=top;align=left;overflow=fill;html=1;whiteSpace=wrap;" vertex="1" parent="lt3hffubJMbixq_gVFom-1">
          <mxGeometry x="-80" y="240" width="270" height="490" as="geometry" />
        </mxCell>
        <mxCell id="lt3hffubJMbixq_gVFom-10" value="&lt;div style=&quot;box-sizing:border-box;width:100%;background:#e4e4e4;padding:2px;&quot;&gt;realtime_stock_values&lt;/div&gt;&lt;table style=&quot;width:100%;font-size:1em;&quot; cellpadding=&quot;2&quot; cellspacing=&quot;0&quot;&gt;&lt;tbody&gt;&lt;tr&gt;&lt;td&gt;PK, FK&lt;br&gt;&lt;/td&gt;&lt;td&gt;company_id&lt;/td&gt;&lt;td&gt;bigint&lt;br&gt;&lt;/td&gt;&lt;/tr&gt;&lt;tr&gt;&lt;td&gt;PK&lt;/td&gt;&lt;td&gt;date&lt;/td&gt;&lt;td&gt;datetime&lt;br&gt;&lt;/td&gt;&lt;/tr&gt;&lt;tr&gt;&lt;td&gt;&lt;/td&gt;&lt;td&gt;price&lt;br&gt;&lt;/td&gt;&lt;td&gt;decimal&lt;br&gt;&lt;/td&gt;&lt;/tr&gt;&lt;tr&gt;&lt;td&gt;&lt;br&gt;&lt;/td&gt;&lt;td&gt;changePercentage&lt;br&gt;&lt;/td&gt;&lt;td&gt;decimal&lt;br&gt;&lt;/td&gt;&lt;/tr&gt;&lt;tr&gt;&lt;td&gt;&lt;br&gt;&lt;/td&gt;&lt;td&gt;change&lt;br&gt;&lt;/td&gt;&lt;td&gt;decimal&lt;br&gt;&lt;/td&gt;&lt;/tr&gt;&lt;tr&gt;&lt;td&gt;&lt;br&gt;&lt;/td&gt;&lt;td&gt;dayHigh&lt;br&gt;&lt;/td&gt;&lt;td&gt;decimal&lt;br&gt;&lt;/td&gt;&lt;/tr&gt;&lt;tr&gt;&lt;td&gt;&lt;br&gt;&lt;/td&gt;&lt;td&gt;dayLow&lt;br&gt;&lt;/td&gt;&lt;td&gt;decimal&lt;br&gt;&lt;/td&gt;&lt;/tr&gt;&lt;tr&gt;&lt;td&gt;&lt;br&gt;&lt;/td&gt;&lt;td&gt;yearHigh&lt;br&gt;&lt;/td&gt;&lt;td&gt;decimal&lt;br&gt;&lt;/td&gt;&lt;/tr&gt;&lt;tr&gt;&lt;td&gt;&lt;br&gt;&lt;/td&gt;&lt;td&gt;yearLow&lt;br&gt;&lt;/td&gt;&lt;td&gt;decimal&lt;br&gt;&lt;/td&gt;&lt;/tr&gt;&lt;tr&gt;&lt;td&gt;&lt;br&gt;&lt;br&gt;&lt;/td&gt;&lt;td&gt;mktCap&lt;br&gt;exchange&lt;/td&gt;&lt;td&gt;bigint&lt;br&gt;varchar(20)&lt;/td&gt;&lt;/tr&gt;&lt;tr&gt;&lt;td&gt;&lt;br&gt;&lt;/td&gt;&lt;td&gt;open&lt;br&gt;&lt;/td&gt;&lt;td&gt;decimal&lt;br&gt;&lt;/td&gt;&lt;/tr&gt;&lt;tr&gt;&lt;td&gt;&lt;br&gt;&lt;/td&gt;&lt;td&gt;prevClose&lt;br&gt;volume&lt;/td&gt;&lt;td&gt;decimal&lt;br&gt;decimal&lt;/td&gt;&lt;/tr&gt;&lt;tr&gt;&lt;td&gt;&lt;br&gt;&lt;/td&gt;&lt;td&gt;volAvg&lt;br&gt;&lt;/td&gt;&lt;td&gt;decimal&lt;br&gt;&lt;/td&gt;&lt;/tr&gt;&lt;tr&gt;&lt;td&gt;&lt;br&gt;&lt;/td&gt;&lt;td&gt;eps&lt;br&gt;&lt;/td&gt;&lt;td&gt;decimal&lt;br&gt;&lt;/td&gt;&lt;/tr&gt;&lt;tr&gt;&lt;td&gt;&lt;br&gt;&lt;/td&gt;&lt;td&gt;pe&lt;br&gt;earningsAnnouncement&lt;br&gt;sharesOutstanding&lt;/td&gt;&lt;td&gt;decimal&lt;br&gt;datetime&lt;br&gt;bigInt&lt;/td&gt;&lt;/tr&gt;&lt;/tbody&gt;&lt;/table&gt;" style="verticalAlign=top;align=left;overflow=fill;html=1;whiteSpace=wrap;" vertex="1" parent="lt3hffubJMbixq_gVFom-1">
          <mxGeometry x="-840" y="10" width="260" height="380" as="geometry" />
        </mxCell>
        <mxCell id="lt3hffubJMbixq_gVFom-11" style="edgeStyle=orthogonalEdgeStyle;rounded=0;orthogonalLoop=1;jettySize=auto;html=1;entryX=1.001;entryY=0.084;entryDx=0;entryDy=0;entryPerimeter=0;endArrow=ERmany;endFill=0;startArrow=ERone;startFill=0;endSize=16;startSize=16;" edge="1" parent="lt3hffubJMbixq_gVFom-1" target="lt3hffubJMbixq_gVFom-10">
          <mxGeometry relative="1" as="geometry">
            <mxPoint x="-390" y="170" as="sourcePoint" />
            <mxPoint x="-509.99999999999994" y="-4.263256414560601e-14" as="targetPoint" />
          </mxGeometry>
        </mxCell>
        <mxCell id="4mDAXq6vklac9jcL0M7B-0" style="edgeStyle=orthogonalEdgeStyle;rounded=0;orthogonalLoop=1;jettySize=auto;html=1;exitX=0;exitY=0.5;exitDx=0;exitDy=0;entryX=1;entryY=0.25;entryDx=0;entryDy=0;endArrow=ERmany;endFill=0;strokeWidth=1;endSize=15;startArrow=ERone;startFill=0;startSize=13;" edge="1" parent="lt3hffubJMbixq_gVFom-1" source="lt3hffubJMbixq_gVFom-12" target="lt3hffubJMbixq_gVFom-14">
          <mxGeometry relative="1" as="geometry" />
        </mxCell>
        <mxCell id="lt3hffubJMbixq_gVFom-12" value="&lt;div style=&quot;box-sizing:border-box;width:100%;background:#e4e4e4;padding:2px;&quot;&gt;bonds&lt;/div&gt;&lt;table style=&quot;width:100%;font-size:1em;&quot; cellpadding=&quot;2&quot; cellspacing=&quot;0&quot;&gt;&lt;tbody&gt;&lt;tr&gt;&lt;td&gt;PK&lt;/td&gt;&lt;td&gt;bond_id&lt;/td&gt;&lt;td&gt;bigint&lt;br&gt;&lt;/td&gt;&lt;/tr&gt;&lt;tr&gt;&lt;td&gt;&lt;br&gt;&lt;/td&gt;&lt;td&gt;treasuryName&lt;/td&gt;&lt;td&gt;varchar(30)&lt;br&gt;&lt;/td&gt;&lt;/tr&gt;&lt;tr&gt;&lt;td&gt;&lt;/td&gt;&lt;td&gt;&lt;br&gt;&lt;/td&gt;&lt;td&gt;&lt;br&gt;&lt;/td&gt;&lt;/tr&gt;&lt;/tbody&gt;&lt;/table&gt;" style="verticalAlign=top;align=left;overflow=fill;html=1;whiteSpace=wrap;" vertex="1" parent="lt3hffubJMbixq_gVFom-1">
          <mxGeometry x="-150" y="1106.5" width="217.5" height="67" as="geometry" />
        </mxCell>
        <mxCell id="lt3hffubJMbixq_gVFom-13" style="edgeStyle=orthogonalEdgeStyle;rounded=0;orthogonalLoop=1;jettySize=auto;html=1;startSize=16;endSize=16;endArrow=ERmany;endFill=0;startArrow=ERone;startFill=0;" edge="1" parent="lt3hffubJMbixq_gVFom-1">
          <mxGeometry relative="1" as="geometry">
            <mxPoint x="-390" y="170" as="sourcePoint" />
            <mxPoint x="-610" y="450" as="targetPoint" />
            <Array as="points">
              <mxPoint x="-485" y="170" />
              <mxPoint x="-485" y="450" />
            </Array>
          </mxGeometry>
        </mxCell>
        <mxCell id="lt3hffubJMbixq_gVFom-14" value="&lt;div style=&quot;box-sizing:border-box;width:100%;background:#e4e4e4;padding:2px;&quot;&gt;bonds_values&lt;/div&gt;&lt;table style=&quot;width:100%;font-size:1em;&quot; cellpadding=&quot;2&quot; cellspacing=&quot;0&quot;&gt;&lt;tbody&gt;&lt;tr&gt;&lt;td&gt;PK, FK&lt;br&gt;&lt;/td&gt;&lt;td&gt;bond_id&lt;br&gt;&lt;/td&gt;&lt;td&gt;bigint&lt;br&gt;&lt;/td&gt;&lt;/tr&gt;&lt;tr&gt;&lt;td&gt;PK&lt;br&gt;&lt;/td&gt;&lt;td&gt;date&lt;/td&gt;&lt;td&gt;datetime&lt;br&gt;&lt;/td&gt;&lt;/tr&gt;&lt;tr&gt;&lt;td&gt;&lt;/td&gt;&lt;td&gt;1_month&lt;br&gt;2_month&lt;br&gt;3_month&lt;br&gt;6_month&lt;br&gt;1_year&lt;br&gt;2_year&lt;br&gt;3_year&lt;br&gt;5_year&lt;br&gt;7_year&lt;br&gt;10_year&lt;br&gt;20_year&lt;br&gt;30_year&lt;/td&gt;&lt;td&gt;decimal&lt;br&gt;decimal&lt;br&gt;decimal&lt;br&gt;decimal&lt;br&gt;decimal&lt;br&gt;decimal&lt;br&gt;decimal&lt;br&gt;decimal&lt;br&gt;decimal&lt;br&gt;decimal&lt;br&gt;decimal&lt;br&gt;decimal&lt;/td&gt;&lt;/tr&gt;&lt;/tbody&gt;&lt;/table&gt;" style="verticalAlign=top;align=left;overflow=fill;html=1;whiteSpace=wrap;" vertex="1" parent="lt3hffubJMbixq_gVFom-1">
          <mxGeometry x="-520" y="1100" width="180" height="240" as="geometry" />
        </mxCell>
        <mxCell id="lt3hffubJMbixq_gVFom-15" style="edgeStyle=orthogonalEdgeStyle;rounded=0;orthogonalLoop=1;jettySize=auto;html=1;exitX=1;exitY=0.25;exitDx=0;exitDy=0;endArrow=ERmany;endFill=0;startSize=16;endSize=16;startArrow=ERone;startFill=0;entryX=-0.003;entryY=0.114;entryDx=0;entryDy=0;entryPerimeter=0;" edge="1" parent="lt3hffubJMbixq_gVFom-1" source="lt3hffubJMbixq_gVFom-5" target="LTzR59cLbCJcX3TOYGGQ-7">
          <mxGeometry relative="1" as="geometry">
            <Array as="points" />
            <mxPoint x="175" y="990" as="targetPoint" />
          </mxGeometry>
        </mxCell>
        <mxCell id="lt3hffubJMbixq_gVFom-18" value="&lt;div style=&quot;box-sizing:border-box;width:100%;background:#e4e4e4;padding:2px;&quot;&gt;company_changelogs&lt;/div&gt;&lt;table style=&quot;width:100%;font-size:1em;&quot; cellpadding=&quot;2&quot; cellspacing=&quot;0&quot;&gt;&lt;tbody&gt;&lt;tr&gt;&lt;td&gt;PK, FK&lt;br&gt;&lt;/td&gt;&lt;td&gt;company_id&lt;br&gt;&lt;/td&gt;&lt;td&gt;bigint&lt;br&gt;&lt;/td&gt;&lt;/tr&gt;&lt;tr&gt;&lt;td&gt;PK&lt;br&gt;&lt;/td&gt;&lt;td&gt;date&lt;/td&gt;&lt;td&gt;datetime&lt;br&gt;&lt;/td&gt;&lt;/tr&gt;&lt;tr&gt;&lt;td&gt;&lt;/td&gt;&lt;td&gt;companyName&lt;br&gt;&lt;/td&gt;&lt;td&gt;varchar(100)&lt;br&gt;&lt;/td&gt;&lt;/tr&gt;&lt;tr&gt;&lt;td&gt;&lt;br&gt;&lt;/td&gt;&lt;td&gt;newCompanyName&lt;br&gt;&lt;/td&gt;&lt;td&gt;varchar(100)&lt;br&gt;&lt;/td&gt;&lt;/tr&gt;&lt;tr&gt;&lt;td&gt;&lt;br&gt;&lt;/td&gt;&lt;td&gt;nameChanged&lt;br&gt;&lt;/td&gt;&lt;td&gt;boolean&lt;br&gt;&lt;/td&gt;&lt;/tr&gt;&lt;tr&gt;&lt;td&gt;&lt;br&gt;&lt;/td&gt;&lt;td&gt;symbol&lt;br&gt;&lt;/td&gt;&lt;td&gt;varchar(10)&lt;br&gt;&lt;/td&gt;&lt;/tr&gt;&lt;tr&gt;&lt;td&gt;&lt;br&gt;&lt;/td&gt;&lt;td&gt;newSymbol&lt;br&gt;&lt;/td&gt;&lt;td&gt;varchar(10)&lt;br&gt;&lt;/td&gt;&lt;/tr&gt;&lt;tr&gt;&lt;td&gt;&lt;br&gt;&lt;/td&gt;&lt;td&gt;symbolChanged&lt;br&gt;&lt;/td&gt;&lt;td&gt;boolean&lt;br&gt;&lt;/td&gt;&lt;/tr&gt;&lt;/tbody&gt;&lt;/table&gt;" style="verticalAlign=top;align=left;overflow=fill;html=1;whiteSpace=wrap;" vertex="1" parent="lt3hffubJMbixq_gVFom-1">
          <mxGeometry x="-70" y="20" width="270" height="184" as="geometry" />
        </mxCell>
        <mxCell id="lt3hffubJMbixq_gVFom-19" style="edgeStyle=orthogonalEdgeStyle;rounded=0;orthogonalLoop=1;jettySize=auto;html=1;exitX=0.997;exitY=0.222;exitDx=0;exitDy=0;entryX=0;entryY=0.157;entryDx=0;entryDy=0;entryPerimeter=0;endArrow=ERmany;endFill=0;endSize=16;startArrow=ERone;startFill=0;startSize=16;exitPerimeter=0;" edge="1" parent="lt3hffubJMbixq_gVFom-1" source="lt3hffubJMbixq_gVFom-2" target="lt3hffubJMbixq_gVFom-18">
          <mxGeometry relative="1" as="geometry">
            <Array as="points">
              <mxPoint x="-130" y="160" />
              <mxPoint x="-130" y="49" />
            </Array>
          </mxGeometry>
        </mxCell>
        <mxCell id="LTzR59cLbCJcX3TOYGGQ-1" value="&lt;div style=&quot;box-sizing:border-box;width:100%;background:#e4e4e4;padding:2px;&quot;&gt;historical_index_values&lt;/div&gt;&lt;table style=&quot;width:100%;font-size:1em;&quot; cellpadding=&quot;2&quot; cellspacing=&quot;0&quot;&gt;&lt;tbody&gt;&lt;tr&gt;&lt;td&gt;PK, FK&lt;br&gt;&lt;/td&gt;&lt;td&gt;index_id&lt;/td&gt;&lt;td&gt;bigint&lt;br&gt;&lt;/td&gt;&lt;/tr&gt;&lt;tr&gt;&lt;td&gt;PK&lt;/td&gt;&lt;td&gt;date&lt;br&gt;&lt;/td&gt;&lt;td&gt;datetime&lt;br&gt;&lt;/td&gt;&lt;/tr&gt;&lt;tr&gt;&lt;td&gt;&lt;/td&gt;&lt;td&gt;open&lt;br&gt;&lt;/td&gt;&lt;td&gt;decimal&lt;br&gt;&lt;/td&gt;&lt;/tr&gt;&lt;tr&gt;&lt;td&gt;&lt;br&gt;&lt;/td&gt;&lt;td&gt;high&lt;br&gt;low&lt;/td&gt;&lt;td&gt;decimal&lt;br&gt;decimal&lt;/td&gt;&lt;/tr&gt;&lt;tr&gt;&lt;td&gt;&lt;br&gt;&lt;/td&gt;&lt;td&gt;close&lt;br&gt;adjClose&lt;br&gt;volume&lt;br&gt;unadjustedVolume&lt;br&gt;change&lt;br&gt;changePercentage&lt;br&gt;vwap&lt;br&gt;changeOverTime&lt;/td&gt;&lt;td&gt;decimal&lt;br&gt;decimal&lt;br&gt;bigint&lt;br&gt;bigint&lt;br&gt;decimal&lt;br&gt;decimal&lt;br&gt;decimal&lt;br&gt;decimal&lt;/td&gt;&lt;/tr&gt;&lt;/tbody&gt;&lt;/table&gt;" style="verticalAlign=top;align=left;overflow=fill;html=1;whiteSpace=wrap;" vertex="1" parent="lt3hffubJMbixq_gVFom-1">
          <mxGeometry x="-855" y="1020" width="230" height="240" as="geometry" />
        </mxCell>
        <mxCell id="LTzR59cLbCJcX3TOYGGQ-2" value="&lt;div style=&quot;box-sizing:border-box;width:100%;background:#e4e4e4;padding:2px;&quot;&gt;realtime_index_values&lt;/div&gt;&lt;table style=&quot;width:100%;font-size:1em;&quot; cellpadding=&quot;2&quot; cellspacing=&quot;0&quot;&gt;&lt;tbody&gt;&lt;tr&gt;&lt;td&gt;PK, FK&lt;br&gt;&lt;/td&gt;&lt;td&gt;index_id&lt;/td&gt;&lt;td&gt;bigint&lt;br&gt;&lt;/td&gt;&lt;/tr&gt;&lt;tr&gt;&lt;td&gt;PK&lt;/td&gt;&lt;td&gt;date&lt;/td&gt;&lt;td&gt;datetime&lt;br&gt;&lt;/td&gt;&lt;/tr&gt;&lt;tr&gt;&lt;td&gt;&lt;/td&gt;&lt;td&gt;price&lt;br&gt;&lt;/td&gt;&lt;td&gt;decimal&lt;br&gt;&lt;/td&gt;&lt;/tr&gt;&lt;tr&gt;&lt;td&gt;&lt;br&gt;&lt;/td&gt;&lt;td&gt;changePercentage&lt;br&gt;&lt;/td&gt;&lt;td&gt;decimal&lt;br&gt;&lt;/td&gt;&lt;/tr&gt;&lt;tr&gt;&lt;td&gt;&lt;br&gt;&lt;/td&gt;&lt;td&gt;change&lt;br&gt;&lt;/td&gt;&lt;td&gt;decimal&lt;br&gt;&lt;/td&gt;&lt;/tr&gt;&lt;tr&gt;&lt;td&gt;&lt;br&gt;&lt;/td&gt;&lt;td&gt;dayHigh&lt;br&gt;&lt;/td&gt;&lt;td&gt;decimal&lt;br&gt;&lt;/td&gt;&lt;/tr&gt;&lt;tr&gt;&lt;td&gt;&lt;br&gt;&lt;/td&gt;&lt;td&gt;dayLow&lt;br&gt;&lt;/td&gt;&lt;td&gt;decimal&lt;br&gt;&lt;/td&gt;&lt;/tr&gt;&lt;tr&gt;&lt;td&gt;&lt;br&gt;&lt;/td&gt;&lt;td&gt;yearHigh&lt;br&gt;&lt;/td&gt;&lt;td&gt;decimal&lt;br&gt;&lt;/td&gt;&lt;/tr&gt;&lt;tr&gt;&lt;td&gt;&lt;br&gt;&lt;/td&gt;&lt;td&gt;yearLow&lt;br&gt;&lt;/td&gt;&lt;td&gt;decimal&lt;br&gt;&lt;/td&gt;&lt;/tr&gt;&lt;tr&gt;&lt;td&gt;&lt;br&gt;&lt;br&gt;&lt;/td&gt;&lt;td&gt;mktCap&lt;br&gt;exchange&lt;/td&gt;&lt;td&gt;bigint&lt;br&gt;varchar(20)&lt;/td&gt;&lt;/tr&gt;&lt;tr&gt;&lt;td&gt;&lt;br&gt;&lt;/td&gt;&lt;td&gt;open&lt;br&gt;&lt;/td&gt;&lt;td&gt;decimal&lt;br&gt;&lt;/td&gt;&lt;/tr&gt;&lt;tr&gt;&lt;td&gt;&lt;br&gt;&lt;/td&gt;&lt;td&gt;prevClose&lt;br&gt;volume&lt;/td&gt;&lt;td&gt;decimal&lt;br&gt;decimal&lt;/td&gt;&lt;/tr&gt;&lt;tr&gt;&lt;td&gt;&lt;br&gt;&lt;/td&gt;&lt;td&gt;volAvg&lt;br&gt;&lt;/td&gt;&lt;td&gt;decimal&lt;br&gt;&lt;/td&gt;&lt;/tr&gt;&lt;tr&gt;&lt;td&gt;&lt;/td&gt;&lt;td&gt;&lt;/td&gt;&lt;td&gt;&lt;br&gt;&lt;/td&gt;&lt;/tr&gt;&lt;tr&gt;&lt;td&gt;&lt;/td&gt;&lt;td&gt;&lt;/td&gt;&lt;td&gt;&lt;br&gt;&lt;br&gt;&lt;/td&gt;&lt;/tr&gt;&lt;/tbody&gt;&lt;/table&gt;" style="verticalAlign=top;align=left;overflow=fill;html=1;whiteSpace=wrap;" vertex="1" parent="lt3hffubJMbixq_gVFom-1">
          <mxGeometry x="-870" y="700" width="260" height="290" as="geometry" />
        </mxCell>
        <mxCell id="LTzR59cLbCJcX3TOYGGQ-3" style="edgeStyle=orthogonalEdgeStyle;rounded=0;orthogonalLoop=1;jettySize=auto;html=1;exitX=0.5;exitY=1;exitDx=0;exitDy=0;" edge="1" parent="lt3hffubJMbixq_gVFom-1" source="lt3hffubJMbixq_gVFom-10" target="lt3hffubJMbixq_gVFom-10">
          <mxGeometry relative="1" as="geometry" />
        </mxCell>
        <mxCell id="LTzR59cLbCJcX3TOYGGQ-5" style="edgeStyle=orthogonalEdgeStyle;rounded=0;orthogonalLoop=1;jettySize=auto;html=1;endSize=16;startSize=16;endArrow=ERmany;endFill=0;startArrow=ERone;startFill=0;" edge="1" parent="lt3hffubJMbixq_gVFom-1">
          <mxGeometry relative="1" as="geometry">
            <mxPoint x="-480" y="740" as="sourcePoint" />
            <mxPoint x="-625" y="1051" as="targetPoint" />
            <Array as="points">
              <mxPoint x="-480" y="740" />
              <mxPoint x="-550" y="740" />
              <mxPoint x="-550" y="1051" />
            </Array>
          </mxGeometry>
        </mxCell>
        <mxCell id="LTzR59cLbCJcX3TOYGGQ-6" value="&lt;div style=&quot;box-sizing:border-box;width:100%;background:#e4e4e4;padding:2px;&quot;&gt;historical_commodity_values&lt;/div&gt;&lt;table style=&quot;width:100%;font-size:1em;&quot; cellpadding=&quot;2&quot; cellspacing=&quot;0&quot;&gt;&lt;tbody&gt;&lt;tr&gt;&lt;td&gt;PK, FK&lt;br&gt;&lt;/td&gt;&lt;td&gt;commodity_id&lt;/td&gt;&lt;td&gt;bigint&lt;br&gt;&lt;/td&gt;&lt;/tr&gt;&lt;tr&gt;&lt;td&gt;PK&lt;/td&gt;&lt;td&gt;date&lt;br&gt;&lt;/td&gt;&lt;td&gt;datetime&lt;br&gt;&lt;/td&gt;&lt;/tr&gt;&lt;tr&gt;&lt;td&gt;&lt;/td&gt;&lt;td&gt;open&lt;br&gt;&lt;/td&gt;&lt;td&gt;decimal&lt;br&gt;&lt;/td&gt;&lt;/tr&gt;&lt;tr&gt;&lt;td&gt;&lt;br&gt;&lt;/td&gt;&lt;td&gt;high&lt;br&gt;low&lt;/td&gt;&lt;td&gt;decimal&lt;br&gt;decimal&lt;/td&gt;&lt;/tr&gt;&lt;tr&gt;&lt;td&gt;&lt;br&gt;&lt;/td&gt;&lt;td&gt;close&lt;br&gt;adjClose&lt;br&gt;volume&lt;br&gt;unadjustedVolume&lt;br&gt;change&lt;br&gt;changePercentage&lt;br&gt;vwap&lt;br&gt;changeOverTime&lt;/td&gt;&lt;td&gt;decimal&lt;br&gt;decimal&lt;br&gt;bigint&lt;br&gt;bigint&lt;br&gt;decimal&lt;br&gt;decimal&lt;br&gt;decimal&lt;br&gt;decimal&lt;/td&gt;&lt;/tr&gt;&lt;/tbody&gt;&lt;/table&gt;" style="verticalAlign=top;align=left;overflow=fill;html=1;whiteSpace=wrap;" vertex="1" parent="lt3hffubJMbixq_gVFom-1">
          <mxGeometry x="310" y="1170" width="230" height="240" as="geometry" />
        </mxCell>
        <mxCell id="LTzR59cLbCJcX3TOYGGQ-7" value="&lt;div style=&quot;box-sizing:border-box;width:100%;background:#e4e4e4;padding:2px;&quot;&gt;realtime_commodity_values&lt;/div&gt;&lt;table style=&quot;width:100%;font-size:1em;&quot; cellpadding=&quot;2&quot; cellspacing=&quot;0&quot;&gt;&lt;tbody&gt;&lt;tr&gt;&lt;td&gt;PK, FK&lt;br&gt;&lt;/td&gt;&lt;td&gt;commodity_id&lt;/td&gt;&lt;td&gt;bigint&lt;br&gt;&lt;/td&gt;&lt;/tr&gt;&lt;tr&gt;&lt;td&gt;PK&lt;/td&gt;&lt;td&gt;date&lt;/td&gt;&lt;td&gt;datetime&lt;br&gt;&lt;/td&gt;&lt;/tr&gt;&lt;tr&gt;&lt;td&gt;&lt;/td&gt;&lt;td&gt;price&lt;br&gt;&lt;/td&gt;&lt;td&gt;decimal&lt;br&gt;&lt;/td&gt;&lt;/tr&gt;&lt;tr&gt;&lt;td&gt;&lt;br&gt;&lt;/td&gt;&lt;td&gt;changePercentage&lt;br&gt;&lt;/td&gt;&lt;td&gt;decimal&lt;br&gt;&lt;/td&gt;&lt;/tr&gt;&lt;tr&gt;&lt;td&gt;&lt;br&gt;&lt;/td&gt;&lt;td&gt;change&lt;br&gt;&lt;/td&gt;&lt;td&gt;decimal&lt;br&gt;&lt;/td&gt;&lt;/tr&gt;&lt;tr&gt;&lt;td&gt;&lt;br&gt;&lt;/td&gt;&lt;td&gt;dayHigh&lt;br&gt;&lt;/td&gt;&lt;td&gt;decimal&lt;br&gt;&lt;/td&gt;&lt;/tr&gt;&lt;tr&gt;&lt;td&gt;&lt;br&gt;&lt;/td&gt;&lt;td&gt;dayLow&lt;br&gt;&lt;/td&gt;&lt;td&gt;decimal&lt;br&gt;&lt;/td&gt;&lt;/tr&gt;&lt;tr&gt;&lt;td&gt;&lt;br&gt;&lt;/td&gt;&lt;td&gt;yearHigh&lt;br&gt;&lt;/td&gt;&lt;td&gt;decimal&lt;br&gt;&lt;/td&gt;&lt;/tr&gt;&lt;tr&gt;&lt;td&gt;&lt;br&gt;&lt;/td&gt;&lt;td&gt;yearLow&lt;br&gt;&lt;/td&gt;&lt;td&gt;decimal&lt;br&gt;&lt;/td&gt;&lt;/tr&gt;&lt;tr&gt;&lt;td&gt;&lt;br&gt;&lt;br&gt;&lt;/td&gt;&lt;td&gt;mktCap&lt;br&gt;exchange&lt;/td&gt;&lt;td&gt;bigint&lt;br&gt;varchar(20)&lt;/td&gt;&lt;/tr&gt;&lt;tr&gt;&lt;td&gt;&lt;br&gt;&lt;/td&gt;&lt;td&gt;open&lt;br&gt;&lt;/td&gt;&lt;td&gt;decimal&lt;br&gt;&lt;/td&gt;&lt;/tr&gt;&lt;tr&gt;&lt;td&gt;&lt;br&gt;&lt;/td&gt;&lt;td&gt;prevClose&lt;br&gt;volume&lt;/td&gt;&lt;td&gt;decimal&lt;br&gt;decimal&lt;/td&gt;&lt;/tr&gt;&lt;tr&gt;&lt;td&gt;&lt;br&gt;&lt;/td&gt;&lt;td&gt;volAvg&lt;br&gt;&lt;/td&gt;&lt;td&gt;decimal&lt;br&gt;&lt;/td&gt;&lt;/tr&gt;&lt;tr&gt;&lt;td&gt;&lt;/td&gt;&lt;td&gt;&lt;/td&gt;&lt;td&gt;&lt;br&gt;&lt;/td&gt;&lt;/tr&gt;&lt;tr&gt;&lt;td&gt;&lt;/td&gt;&lt;td&gt;&lt;/td&gt;&lt;td&gt;&lt;br&gt;&lt;br&gt;&lt;/td&gt;&lt;/tr&gt;&lt;/tbody&gt;&lt;/table&gt;" style="verticalAlign=top;align=left;overflow=fill;html=1;whiteSpace=wrap;" vertex="1" parent="lt3hffubJMbixq_gVFom-1">
          <mxGeometry x="295" y="860" width="260" height="290" as="geometry" />
        </mxCell>
        <mxCell id="LTzR59cLbCJcX3TOYGGQ-8" style="edgeStyle=orthogonalEdgeStyle;rounded=0;orthogonalLoop=1;jettySize=auto;html=1;endSize=16;startSize=16;endArrow=ERmany;endFill=0;startArrow=ERone;startFill=0;exitX=1;exitY=0.25;exitDx=0;exitDy=0;entryX=0.01;entryY=0.087;entryDx=0;entryDy=0;entryPerimeter=0;" edge="1" parent="lt3hffubJMbixq_gVFom-1" source="lt3hffubJMbixq_gVFom-5" target="LTzR59cLbCJcX3TOYGGQ-6">
          <mxGeometry relative="1" as="geometry">
            <mxPoint x="200" y="951" as="sourcePoint" />
            <mxPoint x="305" y="1190" as="targetPoint" />
            <Array as="points">
              <mxPoint x="135" y="892" />
              <mxPoint x="135" y="1190" />
              <mxPoint x="235" y="1190" />
            </Array>
          </mxGeometry>
        </mxCell>
        <mxCell id="W9G-9xMU7z20n3KV50BI-0" style="edgeStyle=orthogonalEdgeStyle;rounded=0;orthogonalLoop=1;jettySize=auto;html=1;exitX=1;exitY=0.25;exitDx=0;exitDy=0;entryX=0;entryY=0.084;entryDx=0;entryDy=0;entryPerimeter=0;endArrow=ERmany;endFill=0;" edge="1" parent="lt3hffubJMbixq_gVFom-1" source="lt3hffubJMbixq_gVFom-2" target="lt3hffubJMbixq_gVFom-9">
          <mxGeometry relative="1" as="geometry">
            <Array as="points">
              <mxPoint x="-170" y="160" />
              <mxPoint x="-130" y="160" />
              <mxPoint x="-130" y="275" />
            </Array>
          </mxGeometry>
        </mxCell>
        <mxCell id="d_qQTAfnufnvCZsoGWga-0" value="&lt;div style=&quot;box-sizing:border-box;width:100%;background:#e4e4e4;padding:2px;&quot;&gt;system_logs&lt;/div&gt;&lt;table style=&quot;width:100%;font-size:1em;&quot; cellpadding=&quot;2&quot; cellspacing=&quot;0&quot;&gt;&lt;tbody&gt;&lt;tr&gt;&lt;td&gt;PK&lt;br&gt;&amp;nbsp;&amp;nbsp;&lt;br&gt;&lt;/td&gt;&lt;td&gt;id&lt;br&gt;date&lt;br&gt;&lt;/td&gt;&lt;td&gt;bigint&lt;br&gt;datetime&lt;br&gt;&lt;/td&gt;&lt;/tr&gt;&lt;tr&gt;&lt;td&gt;&lt;br&gt;&lt;/td&gt;&lt;td&gt;timezone&lt;br&gt;&lt;/td&gt;&lt;td&gt;varchar(50)&lt;/td&gt;&lt;/tr&gt;&lt;tr&gt;&lt;td&gt;&lt;/td&gt;&lt;td&gt;level&lt;br&gt;&lt;/td&gt;&lt;td&gt;varchar(10)&lt;br&gt;&lt;/td&gt;&lt;/tr&gt;&lt;tr&gt;&lt;td&gt;&lt;br&gt;&lt;/td&gt;&lt;td&gt;errLine&lt;br&gt;&lt;/td&gt;&lt;td&gt;varchar(50)&lt;br&gt;&lt;/td&gt;&lt;/tr&gt;&lt;tr&gt;&lt;td&gt;&lt;br&gt;&lt;/td&gt;&lt;td&gt;message&lt;br&gt;&lt;/td&gt;&lt;td&gt;varchar(400)&lt;br&gt;&lt;/td&gt;&lt;/tr&gt;&lt;tr&gt;&lt;td&gt;&lt;br&gt;&lt;/td&gt;&lt;td&gt;&lt;br&gt;&lt;/td&gt;&lt;td&gt;&lt;/td&gt;&lt;/tr&gt;&lt;tr&gt;&lt;td&gt;&lt;br&gt;&lt;/td&gt;&lt;td&gt;&lt;br&gt;&lt;/td&gt;&lt;td&gt;&lt;br&gt;&lt;/td&gt;&lt;/tr&gt;&lt;/tbody&gt;&lt;/table&gt;" style="verticalAlign=top;align=left;overflow=fill;html=1;whiteSpace=wrap;" vertex="1" parent="lt3hffubJMbixq_gVFom-1">
          <mxGeometry x="-415" y="290" width="265" height="130" as="geometry" />
        </mxCell>
        <mxCell id="TWoGmbkx61j0iRqApEhg-0" value="&lt;div style=&quot;box-sizing:border-box;width:100%;background:#e4e4e4;padding:2px;&quot;&gt;users&lt;/div&gt;&lt;table style=&quot;width:100%;font-size:1em;&quot; cellpadding=&quot;2&quot; cellspacing=&quot;0&quot;&gt;&lt;tbody&gt;&lt;tr&gt;&lt;td&gt;PK&lt;br&gt;&amp;nbsp;&amp;nbsp;&lt;br&gt;&lt;/td&gt;&lt;td&gt;id&lt;br&gt;username&lt;br&gt;&lt;/td&gt;&lt;td&gt;bigint&lt;br&gt;varchar(300)&lt;/td&gt;&lt;/tr&gt;&lt;tr&gt;&lt;td&gt;&lt;br&gt;&lt;/td&gt;&lt;td&gt;password&lt;br&gt;&lt;/td&gt;&lt;td&gt;varchar(300)&lt;/td&gt;&lt;/tr&gt;&lt;tr&gt;&lt;td&gt;&lt;/td&gt;&lt;td&gt;firstName&lt;br&gt;&lt;/td&gt;&lt;td&gt;varchar(300)&lt;br&gt;&lt;/td&gt;&lt;/tr&gt;&lt;tr&gt;&lt;td&gt;&lt;br&gt;&lt;/td&gt;&lt;td&gt;lastName&lt;br&gt;&lt;/td&gt;&lt;td&gt;varchar(300)&lt;br&gt;&lt;/td&gt;&lt;/tr&gt;&lt;tr&gt;&lt;td&gt;&lt;br&gt;&lt;/td&gt;&lt;td&gt;isAdmin&lt;br&gt;&lt;/td&gt;&lt;td&gt;varchar(300)&lt;br&gt;&lt;/td&gt;&lt;/tr&gt;&lt;tr&gt;&lt;td&gt;&lt;br&gt;&lt;/td&gt;&lt;td&gt;&lt;br&gt;&lt;/td&gt;&lt;td&gt;&lt;/td&gt;&lt;/tr&gt;&lt;tr&gt;&lt;td&gt;&lt;br&gt;&lt;/td&gt;&lt;td&gt;&lt;br&gt;&lt;/td&gt;&lt;td&gt;&lt;br&gt;&lt;/td&gt;&lt;/tr&gt;&lt;/tbody&gt;&lt;/table&gt;" style="verticalAlign=top;align=left;overflow=fill;html=1;whiteSpace=wrap;" vertex="1" parent="lt3hffubJMbixq_gVFom-1">
          <mxGeometry x="-415" y="470" width="265" height="130" as="geometry" />
        </mxCell>
      </root>
    </mxGraphModel>
  </diagram>
  <diagram name="Copy of Revision 1" id="EEges-KvDq0yPLgCNkhw">
    <mxGraphModel grid="1" page="1" gridSize="10" guides="1" tooltips="1" connect="1" arrows="1" fold="1" pageScale="1" pageWidth="850" pageHeight="1100" math="0" shadow="0">
      <root>
        <mxCell id="iSjNtKFaTPLjjzOFtwBr-0" />
        <mxCell id="iSjNtKFaTPLjjzOFtwBr-1" parent="iSjNtKFaTPLjjzOFtwBr-0" />
        <mxCell id="iSjNtKFaTPLjjzOFtwBr-2" value="&lt;div style=&quot;box-sizing:border-box;width:100%;background:#e4e4e4;padding:2px;&quot;&gt;companies&lt;/div&gt;&lt;table style=&quot;width:100%;font-size:1em;&quot; cellpadding=&quot;2&quot; cellspacing=&quot;0&quot;&gt;&lt;tbody&gt;&lt;tr&gt;&lt;td&gt;PK&lt;/td&gt;&lt;td&gt;id&lt;/td&gt;&lt;td&gt;bigint&lt;br&gt;&lt;/td&gt;&lt;td&gt;&lt;br&gt;&lt;/td&gt;&lt;/tr&gt;&lt;tr&gt;&lt;td&gt;&lt;/td&gt;&lt;td&gt;companyName&lt;br&gt;&lt;/td&gt;&lt;td&gt;varchar(100)&lt;br&gt;&lt;/td&gt;&lt;td&gt;&lt;br&gt;&lt;/td&gt;&lt;/tr&gt;&lt;tr&gt;&lt;td&gt;&lt;br&gt;&lt;/td&gt;&lt;td&gt;symbol&lt;br&gt;isListed&lt;/td&gt;&lt;td&gt;varchar(10)&lt;br&gt;boolean&lt;/td&gt;&lt;td&gt;&lt;br&gt;&lt;/td&gt;&lt;/tr&gt;&lt;/tbody&gt;&lt;/table&gt;" style="verticalAlign=top;align=left;overflow=fill;html=1;whiteSpace=wrap;" vertex="1" parent="iSjNtKFaTPLjjzOFtwBr-1">
          <mxGeometry x="-340" y="310" width="220" height="90" as="geometry" />
        </mxCell>
        <mxCell id="iSjNtKFaTPLjjzOFtwBr-3" style="edgeStyle=orthogonalEdgeStyle;rounded=0;orthogonalLoop=1;jettySize=auto;html=1;endSize=16;startSize=16;endArrow=ERmany;endFill=0;startArrow=ERone;startFill=0;exitX=-0.002;exitY=0.112;exitDx=0;exitDy=0;exitPerimeter=0;entryX=1.003;entryY=0.139;entryDx=0;entryDy=0;entryPerimeter=0;" edge="1" parent="iSjNtKFaTPLjjzOFtwBr-1" source="iSjNtKFaTPLjjzOFtwBr-4" target="iSjNtKFaTPLjjzOFtwBr-18">
          <mxGeometry relative="1" as="geometry">
            <mxPoint y="800" as="sourcePoint" />
            <mxPoint x="-450" y="790" as="targetPoint" />
            <Array as="points" />
          </mxGeometry>
        </mxCell>
        <mxCell id="iSjNtKFaTPLjjzOFtwBr-4" value="&lt;div style=&quot;box-sizing:border-box;width:100%;background:#e4e4e4;padding:2px;&quot;&gt;indexes&lt;/div&gt;&lt;table style=&quot;width:100%;font-size:1em;&quot; cellpadding=&quot;2&quot; cellspacing=&quot;0&quot;&gt;&lt;tbody&gt;&lt;tr&gt;&lt;td&gt;PK&lt;/td&gt;&lt;td&gt;id&lt;/td&gt;&lt;td&gt;bigint&lt;br&gt;&lt;/td&gt;&lt;/tr&gt;&lt;tr&gt;&lt;td&gt;&lt;br&gt;&lt;/td&gt;&lt;td&gt;indexName&lt;/td&gt;&lt;td&gt;varchar(30)&lt;br&gt;&lt;/td&gt;&lt;/tr&gt;&lt;tr&gt;&lt;td&gt;&lt;/td&gt;&lt;td&gt;symbol&lt;/td&gt;&lt;td&gt;varchar(10)&lt;br&gt;&lt;/td&gt;&lt;/tr&gt;&lt;/tbody&gt;&lt;/table&gt;" style="verticalAlign=top;align=left;overflow=fill;html=1;whiteSpace=wrap;" vertex="1" parent="iSjNtKFaTPLjjzOFtwBr-1">
          <mxGeometry x="-330" y="780" width="170" height="90" as="geometry" />
        </mxCell>
        <mxCell id="iSjNtKFaTPLjjzOFtwBr-5" value="&lt;div style=&quot;box-sizing:border-box;width:100%;background:#e4e4e4;padding:2px;&quot;&gt;commodities&lt;/div&gt;&lt;table style=&quot;width:100%;font-size:1em;&quot; cellpadding=&quot;2&quot; cellspacing=&quot;0&quot;&gt;&lt;tbody&gt;&lt;tr&gt;&lt;td&gt;PK&lt;/td&gt;&lt;td&gt;id&lt;/td&gt;&lt;td&gt;bigint&lt;br&gt;&lt;/td&gt;&lt;/tr&gt;&lt;tr&gt;&lt;td&gt;&lt;br&gt;&lt;/td&gt;&lt;td&gt;commodityName&lt;/td&gt;&lt;td&gt;varchar(30)&lt;br&gt;&lt;/td&gt;&lt;/tr&gt;&lt;tr&gt;&lt;td&gt;&lt;/td&gt;&lt;td&gt;symbol&lt;/td&gt;&lt;td&gt;varchar(10)&lt;br&gt;&lt;/td&gt;&lt;/tr&gt;&lt;/tbody&gt;&lt;/table&gt;" style="verticalAlign=top;align=left;overflow=fill;html=1;whiteSpace=wrap;" vertex="1" parent="iSjNtKFaTPLjjzOFtwBr-1">
          <mxGeometry x="-188.75" y="890" width="205" height="90" as="geometry" />
        </mxCell>
        <mxCell id="y1HxVAD1R0oMUt7Rkm-C-0" style="edgeStyle=orthogonalEdgeStyle;rounded=0;orthogonalLoop=1;jettySize=auto;html=1;entryX=0;entryY=0.5;entryDx=0;entryDy=0;exitX=1;exitY=0.25;exitDx=0;exitDy=0;endArrow=ERmany;endFill=0;strokeWidth=1;endSize=16;" edge="1" parent="iSjNtKFaTPLjjzOFtwBr-1" source="iSjNtKFaTPLjjzOFtwBr-5" target="iSjNtKFaTPLjjzOFtwBr-22">
          <mxGeometry relative="1" as="geometry">
            <Array as="points">
              <mxPoint x="100" y="912" />
              <mxPoint x="100" y="1310" />
            </Array>
          </mxGeometry>
        </mxCell>
        <mxCell id="qpsFFOYCrFmmqqnNG4Zl-1" style="edgeStyle=orthogonalEdgeStyle;rounded=0;orthogonalLoop=1;jettySize=auto;html=1;entryX=0;entryY=0.75;entryDx=0;entryDy=0;endArrow=ERmandOne;endFill=0;startArrow=ERzeroToMany;startFill=0;endSize=15;startSize=15;" edge="1" parent="iSjNtKFaTPLjjzOFtwBr-1" source="iSjNtKFaTPLjjzOFtwBr-6" target="iSjNtKFaTPLjjzOFtwBr-2">
          <mxGeometry relative="1" as="geometry" />
        </mxCell>
        <mxCell id="iSjNtKFaTPLjjzOFtwBr-6" value="&lt;div style=&quot;box-sizing:border-box;width:100%;background:#e4e4e4;padding:2px;&quot;&gt;historical_stock_values&lt;/div&gt;&lt;table style=&quot;width:100%;font-size:1em;&quot; cellpadding=&quot;2&quot; cellspacing=&quot;0&quot;&gt;&lt;tbody&gt;&lt;tr&gt;&lt;td&gt;PK, FK&lt;br&gt;&lt;/td&gt;&lt;td&gt;company_id&lt;/td&gt;&lt;td&gt;bigint&lt;br&gt;&lt;/td&gt;&lt;/tr&gt;&lt;tr&gt;&lt;td&gt;PK&lt;/td&gt;&lt;td&gt;date&lt;br&gt;&lt;/td&gt;&lt;td&gt;datetime&lt;br&gt;&lt;/td&gt;&lt;/tr&gt;&lt;tr&gt;&lt;td&gt;&lt;/td&gt;&lt;td&gt;open&lt;br&gt;&lt;/td&gt;&lt;td&gt;decimal&lt;br&gt;&lt;/td&gt;&lt;/tr&gt;&lt;tr&gt;&lt;td&gt;&lt;br&gt;&lt;/td&gt;&lt;td&gt;high&lt;br&gt;low&lt;/td&gt;&lt;td&gt;decimal&lt;br&gt;decimal&lt;/td&gt;&lt;/tr&gt;&lt;tr&gt;&lt;td&gt;&lt;br&gt;&lt;/td&gt;&lt;td&gt;close&lt;br&gt;adjClose&lt;br&gt;volume&lt;br&gt;unadjustedVolume&lt;br&gt;change&lt;br&gt;changePercentage&lt;br&gt;vwap&lt;br&gt;changeOverTime&lt;/td&gt;&lt;td&gt;decimal&lt;br&gt;decimal&lt;br&gt;bigint&lt;br&gt;bigint&lt;br&gt;decimal&lt;br&gt;decimal&lt;br&gt;decimal&lt;br&gt;decimal&lt;/td&gt;&lt;/tr&gt;&lt;/tbody&gt;&lt;/table&gt;" style="verticalAlign=top;align=left;overflow=fill;html=1;whiteSpace=wrap;" vertex="1" parent="iSjNtKFaTPLjjzOFtwBr-1">
          <mxGeometry x="-700" y="430" width="230" height="240" as="geometry" />
        </mxCell>
        <mxCell id="qpsFFOYCrFmmqqnNG4Zl-3" style="edgeStyle=orthogonalEdgeStyle;rounded=0;orthogonalLoop=1;jettySize=auto;html=1;entryX=1;entryY=0.75;entryDx=0;entryDy=0;endArrow=ERmandOne;endFill=0;endSize=15;startSize=15;startArrow=ERzeroToMany;startFill=0;" edge="1" parent="iSjNtKFaTPLjjzOFtwBr-1" source="iSjNtKFaTPLjjzOFtwBr-7" target="iSjNtKFaTPLjjzOFtwBr-2">
          <mxGeometry relative="1" as="geometry" />
        </mxCell>
        <mxCell id="iSjNtKFaTPLjjzOFtwBr-7" value="&lt;div style=&quot;box-sizing:border-box;width:100%;background:#e4e4e4;padding:2px;&quot;&gt;company_statements&lt;/div&gt;&lt;table style=&quot;width:100%;font-size:1em;&quot; cellpadding=&quot;2&quot; cellspacing=&quot;0&quot;&gt;&lt;tbody&gt;&lt;tr&gt;&lt;td&gt;PK, FK&lt;br&gt;&lt;/td&gt;&lt;td&gt;company_id&lt;br&gt;&lt;/td&gt;&lt;td&gt;bigint&lt;br&gt;&lt;/td&gt;&lt;/tr&gt;&lt;tr&gt;&lt;td&gt;PK&lt;br&gt;&lt;/td&gt;&lt;td&gt;date&lt;/td&gt;&lt;td&gt;datetime&lt;br&gt;&lt;/td&gt;&lt;/tr&gt;&lt;tr&gt;&lt;td&gt;&lt;/td&gt;&lt;td&gt;price&lt;/td&gt;&lt;td&gt;decimal&lt;/td&gt;&lt;/tr&gt;&lt;tr&gt;&lt;td&gt;&lt;/td&gt;&lt;td&gt;beta&lt;br&gt;volAvg&lt;br&gt;mktCap&lt;br&gt;lastDiv&lt;br&gt;changes&lt;br&gt;currency&lt;br&gt;cik&lt;br&gt;isin&lt;br&gt;cusip&lt;br&gt;exchangeFullName&lt;br&gt;exchange&lt;br&gt;industry&lt;br&gt;ceo&lt;br&gt;sector&lt;br&gt;country&lt;br&gt;fullTimeEmployees&lt;br&gt;phone&lt;br&gt;address&lt;br&gt;city&lt;br&gt;state&lt;br&gt;zip&lt;br&gt;dcfDiff&lt;br&gt;dcf&lt;br&gt;ipoDate&lt;br&gt;isEtf&lt;br&gt;isActivelyTrading&lt;br&gt;isAdr&lt;br&gt;isFund&lt;/td&gt;&lt;td&gt;decimal&lt;br&gt;decimal&lt;br&gt;bigint&lt;br&gt;decimal&lt;br&gt;decimal&lt;br&gt;varchar(3)&lt;br&gt;varchar(16)&lt;br&gt;varchar(16)&lt;br&gt;varchar(16)&lt;br&gt;varchar(100)&lt;br&gt;varchar(20)&lt;br&gt;varchar(100)&lt;br&gt;varchar(200)&lt;br&gt;varchar(100)&lt;br&gt;varchar(100)&lt;br&gt;bigint&lt;br&gt;varchar(16)&lt;br&gt;varchar(200)&lt;br&gt;varchar(200)&lt;br&gt;varchar(100)&lt;br&gt;varchar(16)&lt;br&gt;decimal&lt;br&gt;decimal&lt;br&gt;datetime&lt;br&gt;boolean&lt;br&gt;boolean&lt;br&gt;boolean&lt;br&gt;boolean&lt;/td&gt;&lt;/tr&gt;&lt;/tbody&gt;&lt;/table&gt;" style="verticalAlign=top;align=left;overflow=fill;html=1;whiteSpace=wrap;" vertex="1" parent="iSjNtKFaTPLjjzOFtwBr-1">
          <mxGeometry x="20" y="240" width="270" height="490" as="geometry" />
        </mxCell>
        <mxCell id="qpsFFOYCrFmmqqnNG4Zl-0" style="edgeStyle=orthogonalEdgeStyle;rounded=0;orthogonalLoop=1;jettySize=auto;html=1;entryX=0;entryY=0.25;entryDx=0;entryDy=0;endArrow=ERmandOne;endFill=0;startArrow=ERzeroToMany;startFill=0;endSize=15;startSize=15;" edge="1" parent="iSjNtKFaTPLjjzOFtwBr-1" source="iSjNtKFaTPLjjzOFtwBr-8" target="iSjNtKFaTPLjjzOFtwBr-2">
          <mxGeometry relative="1" as="geometry" />
        </mxCell>
        <mxCell id="iSjNtKFaTPLjjzOFtwBr-8" value="&lt;div style=&quot;box-sizing:border-box;width:100%;background:#e4e4e4;padding:2px;&quot;&gt;realtime_stock_values&lt;/div&gt;&lt;table style=&quot;width:100%;font-size:1em;&quot; cellpadding=&quot;2&quot; cellspacing=&quot;0&quot;&gt;&lt;tbody&gt;&lt;tr&gt;&lt;td&gt;PK, FK&lt;br&gt;&lt;/td&gt;&lt;td&gt;company_id&lt;/td&gt;&lt;td&gt;bigint&lt;br&gt;&lt;/td&gt;&lt;/tr&gt;&lt;tr&gt;&lt;td&gt;PK&lt;/td&gt;&lt;td&gt;date&lt;/td&gt;&lt;td&gt;datetime&lt;br&gt;&lt;/td&gt;&lt;/tr&gt;&lt;tr&gt;&lt;td&gt;&lt;/td&gt;&lt;td&gt;price&lt;br&gt;&lt;/td&gt;&lt;td&gt;decimal&lt;br&gt;&lt;/td&gt;&lt;/tr&gt;&lt;tr&gt;&lt;td&gt;&lt;br&gt;&lt;/td&gt;&lt;td&gt;changePercentage&lt;br&gt;&lt;/td&gt;&lt;td&gt;decimal&lt;br&gt;&lt;/td&gt;&lt;/tr&gt;&lt;tr&gt;&lt;td&gt;&lt;br&gt;&lt;/td&gt;&lt;td&gt;change&lt;br&gt;&lt;/td&gt;&lt;td&gt;decimal&lt;br&gt;&lt;/td&gt;&lt;/tr&gt;&lt;tr&gt;&lt;td&gt;&lt;br&gt;&lt;/td&gt;&lt;td&gt;dayHigh&lt;br&gt;&lt;/td&gt;&lt;td&gt;decimal&lt;br&gt;&lt;/td&gt;&lt;/tr&gt;&lt;tr&gt;&lt;td&gt;&lt;br&gt;&lt;/td&gt;&lt;td&gt;dayLow&lt;br&gt;&lt;/td&gt;&lt;td&gt;decimal&lt;br&gt;&lt;/td&gt;&lt;/tr&gt;&lt;tr&gt;&lt;td&gt;&lt;br&gt;&lt;/td&gt;&lt;td&gt;yearHigh&lt;br&gt;&lt;/td&gt;&lt;td&gt;decimal&lt;br&gt;&lt;/td&gt;&lt;/tr&gt;&lt;tr&gt;&lt;td&gt;&lt;br&gt;&lt;/td&gt;&lt;td&gt;yearLow&lt;br&gt;&lt;/td&gt;&lt;td&gt;decimal&lt;br&gt;&lt;/td&gt;&lt;/tr&gt;&lt;tr&gt;&lt;td&gt;&lt;br&gt;&lt;br&gt;&lt;/td&gt;&lt;td&gt;mktCap&lt;br&gt;exchange&lt;/td&gt;&lt;td&gt;bigint&lt;br&gt;varchar(20)&lt;/td&gt;&lt;/tr&gt;&lt;tr&gt;&lt;td&gt;&lt;br&gt;&lt;/td&gt;&lt;td&gt;open&lt;br&gt;&lt;/td&gt;&lt;td&gt;decimal&lt;br&gt;&lt;/td&gt;&lt;/tr&gt;&lt;tr&gt;&lt;td&gt;&lt;br&gt;&lt;/td&gt;&lt;td&gt;prevClose&lt;br&gt;volume&lt;/td&gt;&lt;td&gt;decimal&lt;br&gt;decimal&lt;/td&gt;&lt;/tr&gt;&lt;tr&gt;&lt;td&gt;&lt;br&gt;&lt;/td&gt;&lt;td&gt;volAvg&lt;br&gt;&lt;/td&gt;&lt;td&gt;decimal&lt;br&gt;&lt;/td&gt;&lt;/tr&gt;&lt;tr&gt;&lt;td&gt;&lt;br&gt;&lt;/td&gt;&lt;td&gt;eps&lt;br&gt;&lt;/td&gt;&lt;td&gt;decimal&lt;br&gt;&lt;/td&gt;&lt;/tr&gt;&lt;tr&gt;&lt;td&gt;&lt;br&gt;&lt;/td&gt;&lt;td&gt;pe&lt;br&gt;earningsAnnouncement&lt;br&gt;sharesOutstanding&lt;/td&gt;&lt;td&gt;decimal&lt;br&gt;datetime&lt;br&gt;bigInt&lt;/td&gt;&lt;/tr&gt;&lt;/tbody&gt;&lt;/table&gt;" style="verticalAlign=top;align=left;overflow=fill;html=1;whiteSpace=wrap;" vertex="1" parent="iSjNtKFaTPLjjzOFtwBr-1">
          <mxGeometry x="-730" y="10" width="260" height="380" as="geometry" />
        </mxCell>
        <mxCell id="iSjNtKFaTPLjjzOFtwBr-11" value="&lt;div style=&quot;box-sizing:border-box;width:100%;background:#e4e4e4;padding:2px;&quot;&gt;bonds&lt;/div&gt;&lt;table style=&quot;width:100%;font-size:1em;&quot; cellpadding=&quot;2&quot; cellspacing=&quot;0&quot;&gt;&lt;tbody&gt;&lt;tr&gt;&lt;td&gt;PK&lt;/td&gt;&lt;td&gt;bond_id&lt;/td&gt;&lt;td&gt;bigint&lt;br&gt;&lt;/td&gt;&lt;/tr&gt;&lt;tr&gt;&lt;td&gt;&lt;br&gt;&lt;/td&gt;&lt;td&gt;treasuryName&lt;/td&gt;&lt;td&gt;varchar(30)&lt;br&gt;&lt;/td&gt;&lt;/tr&gt;&lt;tr&gt;&lt;td&gt;&lt;/td&gt;&lt;td&gt;&lt;br&gt;&lt;/td&gt;&lt;td&gt;&lt;br&gt;&lt;/td&gt;&lt;/tr&gt;&lt;/tbody&gt;&lt;/table&gt;" style="verticalAlign=top;align=left;overflow=fill;html=1;whiteSpace=wrap;" vertex="1" parent="iSjNtKFaTPLjjzOFtwBr-1">
          <mxGeometry x="-130" y="1060" width="217.5" height="67" as="geometry" />
        </mxCell>
        <mxCell id="iSjNtKFaTPLjjzOFtwBr-13" value="&lt;div style=&quot;box-sizing:border-box;width:100%;background:#e4e4e4;padding:2px;&quot;&gt;bonds_values&lt;/div&gt;&lt;table style=&quot;width:100%;font-size:1em;&quot; cellpadding=&quot;2&quot; cellspacing=&quot;0&quot;&gt;&lt;tbody&gt;&lt;tr&gt;&lt;td&gt;PK, FK&lt;br&gt;&lt;/td&gt;&lt;td&gt;bond_id&lt;br&gt;&lt;/td&gt;&lt;td&gt;bigint&lt;br&gt;&lt;/td&gt;&lt;/tr&gt;&lt;tr&gt;&lt;td&gt;PK&lt;br&gt;&lt;/td&gt;&lt;td&gt;date&lt;/td&gt;&lt;td&gt;datetime&lt;br&gt;&lt;/td&gt;&lt;/tr&gt;&lt;tr&gt;&lt;td&gt;&lt;/td&gt;&lt;td&gt;1_month&lt;br&gt;2_month&lt;br&gt;3_month&lt;br&gt;6_month&lt;br&gt;1_year&lt;br&gt;2_year&lt;br&gt;3_year&lt;br&gt;5_year&lt;br&gt;7_year&lt;br&gt;10_year&lt;br&gt;20_year&lt;br&gt;30_year&lt;/td&gt;&lt;td&gt;decimal&lt;br&gt;decimal&lt;br&gt;decimal&lt;br&gt;decimal&lt;br&gt;decimal&lt;br&gt;decimal&lt;br&gt;decimal&lt;br&gt;decimal&lt;br&gt;decimal&lt;br&gt;decimal&lt;br&gt;decimal&lt;br&gt;decimal&lt;/td&gt;&lt;/tr&gt;&lt;/tbody&gt;&lt;/table&gt;" style="verticalAlign=top;align=left;overflow=fill;html=1;whiteSpace=wrap;" vertex="1" parent="iSjNtKFaTPLjjzOFtwBr-1">
          <mxGeometry x="-390" y="1030" width="180" height="240" as="geometry" />
        </mxCell>
        <mxCell id="iSjNtKFaTPLjjzOFtwBr-14" style="edgeStyle=orthogonalEdgeStyle;rounded=0;orthogonalLoop=1;jettySize=auto;html=1;exitX=1;exitY=0.25;exitDx=0;exitDy=0;endArrow=ERmany;endFill=0;startSize=16;endSize=16;startArrow=ERone;startFill=0;entryX=-0.003;entryY=0.114;entryDx=0;entryDy=0;entryPerimeter=0;" edge="1" parent="iSjNtKFaTPLjjzOFtwBr-1" source="iSjNtKFaTPLjjzOFtwBr-5" target="iSjNtKFaTPLjjzOFtwBr-23">
          <mxGeometry relative="1" as="geometry">
            <Array as="points" />
            <mxPoint x="130" y="1010" as="targetPoint" />
          </mxGeometry>
        </mxCell>
        <mxCell id="qpsFFOYCrFmmqqnNG4Zl-2" style="edgeStyle=orthogonalEdgeStyle;rounded=0;orthogonalLoop=1;jettySize=auto;html=1;entryX=1;entryY=0.25;entryDx=0;entryDy=0;endArrow=ERmandOne;endFill=0;endSize=15;startSize=15;startArrow=ERzeroToMany;startFill=0;" edge="1" parent="iSjNtKFaTPLjjzOFtwBr-1" source="iSjNtKFaTPLjjzOFtwBr-15" target="iSjNtKFaTPLjjzOFtwBr-2">
          <mxGeometry relative="1" as="geometry" />
        </mxCell>
        <mxCell id="iSjNtKFaTPLjjzOFtwBr-15" value="&lt;div style=&quot;box-sizing:border-box;width:100%;background:#e4e4e4;padding:2px;&quot;&gt;company_changelogs&lt;/div&gt;&lt;table style=&quot;width:100%;font-size:1em;&quot; cellpadding=&quot;2&quot; cellspacing=&quot;0&quot;&gt;&lt;tbody&gt;&lt;tr&gt;&lt;td&gt;PK, FK&lt;br&gt;&lt;/td&gt;&lt;td&gt;company_id&lt;br&gt;&lt;/td&gt;&lt;td&gt;bigint&lt;br&gt;&lt;/td&gt;&lt;/tr&gt;&lt;tr&gt;&lt;td&gt;PK&lt;br&gt;&lt;/td&gt;&lt;td&gt;date&lt;/td&gt;&lt;td&gt;datetime&lt;br&gt;&lt;/td&gt;&lt;/tr&gt;&lt;tr&gt;&lt;td&gt;&lt;/td&gt;&lt;td&gt;companyName&lt;br&gt;&lt;/td&gt;&lt;td&gt;varchar(100)&lt;br&gt;&lt;/td&gt;&lt;/tr&gt;&lt;tr&gt;&lt;td&gt;&lt;br&gt;&lt;/td&gt;&lt;td&gt;newCompanyName&lt;br&gt;&lt;/td&gt;&lt;td&gt;varchar(100)&lt;br&gt;&lt;/td&gt;&lt;/tr&gt;&lt;tr&gt;&lt;td&gt;&lt;br&gt;&lt;/td&gt;&lt;td&gt;nameChanged&lt;br&gt;&lt;/td&gt;&lt;td&gt;boolean&lt;br&gt;&lt;/td&gt;&lt;/tr&gt;&lt;tr&gt;&lt;td&gt;&lt;br&gt;&lt;/td&gt;&lt;td&gt;symbol&lt;br&gt;&lt;/td&gt;&lt;td&gt;varchar(10)&lt;br&gt;&lt;/td&gt;&lt;/tr&gt;&lt;tr&gt;&lt;td&gt;&lt;br&gt;&lt;/td&gt;&lt;td&gt;newSymbol&lt;br&gt;&lt;/td&gt;&lt;td&gt;varchar(10)&lt;br&gt;&lt;/td&gt;&lt;/tr&gt;&lt;tr&gt;&lt;td&gt;&lt;br&gt;&lt;/td&gt;&lt;td&gt;symbolChanged&lt;br&gt;&lt;/td&gt;&lt;td&gt;boolean&lt;br&gt;&lt;/td&gt;&lt;/tr&gt;&lt;/tbody&gt;&lt;/table&gt;" style="verticalAlign=top;align=left;overflow=fill;html=1;whiteSpace=wrap;" vertex="1" parent="iSjNtKFaTPLjjzOFtwBr-1">
          <mxGeometry x="20" y="20" width="270" height="184" as="geometry" />
        </mxCell>
        <mxCell id="iSjNtKFaTPLjjzOFtwBr-17" value="&lt;div style=&quot;box-sizing:border-box;width:100%;background:#e4e4e4;padding:2px;&quot;&gt;historical_index_values&lt;/div&gt;&lt;table style=&quot;width:100%;font-size:1em;&quot; cellpadding=&quot;2&quot; cellspacing=&quot;0&quot;&gt;&lt;tbody&gt;&lt;tr&gt;&lt;td&gt;PK, FK&lt;br&gt;&lt;/td&gt;&lt;td&gt;index_id&lt;/td&gt;&lt;td&gt;bigint&lt;br&gt;&lt;/td&gt;&lt;/tr&gt;&lt;tr&gt;&lt;td&gt;PK&lt;/td&gt;&lt;td&gt;date&lt;br&gt;&lt;/td&gt;&lt;td&gt;datetime&lt;br&gt;&lt;/td&gt;&lt;/tr&gt;&lt;tr&gt;&lt;td&gt;&lt;/td&gt;&lt;td&gt;open&lt;br&gt;&lt;/td&gt;&lt;td&gt;decimal&lt;br&gt;&lt;/td&gt;&lt;/tr&gt;&lt;tr&gt;&lt;td&gt;&lt;br&gt;&lt;/td&gt;&lt;td&gt;high&lt;br&gt;low&lt;/td&gt;&lt;td&gt;decimal&lt;br&gt;decimal&lt;/td&gt;&lt;/tr&gt;&lt;tr&gt;&lt;td&gt;&lt;br&gt;&lt;/td&gt;&lt;td&gt;close&lt;br&gt;adjClose&lt;br&gt;volume&lt;br&gt;unadjustedVolume&lt;br&gt;change&lt;br&gt;changePercentage&lt;br&gt;vwap&lt;br&gt;changeOverTime&lt;/td&gt;&lt;td&gt;decimal&lt;br&gt;decimal&lt;br&gt;bigint&lt;br&gt;bigint&lt;br&gt;decimal&lt;br&gt;decimal&lt;br&gt;decimal&lt;br&gt;decimal&lt;/td&gt;&lt;/tr&gt;&lt;/tbody&gt;&lt;/table&gt;" style="verticalAlign=top;align=left;overflow=fill;html=1;whiteSpace=wrap;" vertex="1" parent="iSjNtKFaTPLjjzOFtwBr-1">
          <mxGeometry x="-705" y="1070" width="230" height="240" as="geometry" />
        </mxCell>
        <mxCell id="iSjNtKFaTPLjjzOFtwBr-18" value="&lt;div style=&quot;box-sizing:border-box;width:100%;background:#e4e4e4;padding:2px;&quot;&gt;realtime_index_values&lt;/div&gt;&lt;table style=&quot;width:100%;font-size:1em;&quot; cellpadding=&quot;2&quot; cellspacing=&quot;0&quot;&gt;&lt;tbody&gt;&lt;tr&gt;&lt;td&gt;PK, FK&lt;br&gt;&lt;/td&gt;&lt;td&gt;index_id&lt;/td&gt;&lt;td&gt;bigint&lt;br&gt;&lt;/td&gt;&lt;/tr&gt;&lt;tr&gt;&lt;td&gt;PK&lt;/td&gt;&lt;td&gt;date&lt;/td&gt;&lt;td&gt;datetime&lt;br&gt;&lt;/td&gt;&lt;/tr&gt;&lt;tr&gt;&lt;td&gt;&lt;/td&gt;&lt;td&gt;price&lt;br&gt;&lt;/td&gt;&lt;td&gt;decimal&lt;br&gt;&lt;/td&gt;&lt;/tr&gt;&lt;tr&gt;&lt;td&gt;&lt;br&gt;&lt;/td&gt;&lt;td&gt;changePercentage&lt;br&gt;&lt;/td&gt;&lt;td&gt;decimal&lt;br&gt;&lt;/td&gt;&lt;/tr&gt;&lt;tr&gt;&lt;td&gt;&lt;br&gt;&lt;/td&gt;&lt;td&gt;change&lt;br&gt;&lt;/td&gt;&lt;td&gt;decimal&lt;br&gt;&lt;/td&gt;&lt;/tr&gt;&lt;tr&gt;&lt;td&gt;&lt;br&gt;&lt;/td&gt;&lt;td&gt;dayHigh&lt;br&gt;&lt;/td&gt;&lt;td&gt;decimal&lt;br&gt;&lt;/td&gt;&lt;/tr&gt;&lt;tr&gt;&lt;td&gt;&lt;br&gt;&lt;/td&gt;&lt;td&gt;dayLow&lt;br&gt;&lt;/td&gt;&lt;td&gt;decimal&lt;br&gt;&lt;/td&gt;&lt;/tr&gt;&lt;tr&gt;&lt;td&gt;&lt;br&gt;&lt;/td&gt;&lt;td&gt;yearHigh&lt;br&gt;&lt;/td&gt;&lt;td&gt;decimal&lt;br&gt;&lt;/td&gt;&lt;/tr&gt;&lt;tr&gt;&lt;td&gt;&lt;br&gt;&lt;/td&gt;&lt;td&gt;yearLow&lt;br&gt;&lt;/td&gt;&lt;td&gt;decimal&lt;br&gt;&lt;/td&gt;&lt;/tr&gt;&lt;tr&gt;&lt;td&gt;&lt;br&gt;&lt;br&gt;&lt;/td&gt;&lt;td&gt;mktCap&lt;br&gt;exchange&lt;/td&gt;&lt;td&gt;bigint&lt;br&gt;varchar(20)&lt;/td&gt;&lt;/tr&gt;&lt;tr&gt;&lt;td&gt;&lt;br&gt;&lt;/td&gt;&lt;td&gt;open&lt;br&gt;&lt;/td&gt;&lt;td&gt;decimal&lt;br&gt;&lt;/td&gt;&lt;/tr&gt;&lt;tr&gt;&lt;td&gt;&lt;br&gt;&lt;/td&gt;&lt;td&gt;prevClose&lt;br&gt;volume&lt;/td&gt;&lt;td&gt;decimal&lt;br&gt;decimal&lt;/td&gt;&lt;/tr&gt;&lt;tr&gt;&lt;td&gt;&lt;br&gt;&lt;/td&gt;&lt;td&gt;volAvg&lt;br&gt;&lt;/td&gt;&lt;td&gt;decimal&lt;br&gt;&lt;/td&gt;&lt;/tr&gt;&lt;tr&gt;&lt;td&gt;&lt;/td&gt;&lt;td&gt;&lt;/td&gt;&lt;td&gt;&lt;br&gt;&lt;/td&gt;&lt;/tr&gt;&lt;tr&gt;&lt;td&gt;&lt;/td&gt;&lt;td&gt;&lt;/td&gt;&lt;td&gt;&lt;br&gt;&lt;br&gt;&lt;/td&gt;&lt;/tr&gt;&lt;/tbody&gt;&lt;/table&gt;" style="verticalAlign=top;align=left;overflow=fill;html=1;whiteSpace=wrap;" vertex="1" parent="iSjNtKFaTPLjjzOFtwBr-1">
          <mxGeometry x="-720" y="750" width="260" height="290" as="geometry" />
        </mxCell>
        <mxCell id="iSjNtKFaTPLjjzOFtwBr-19" style="edgeStyle=orthogonalEdgeStyle;rounded=0;orthogonalLoop=1;jettySize=auto;html=1;exitX=0.5;exitY=1;exitDx=0;exitDy=0;" edge="1" parent="iSjNtKFaTPLjjzOFtwBr-1" source="iSjNtKFaTPLjjzOFtwBr-8" target="iSjNtKFaTPLjjzOFtwBr-8">
          <mxGeometry relative="1" as="geometry" />
        </mxCell>
        <mxCell id="iSjNtKFaTPLjjzOFtwBr-21" style="edgeStyle=orthogonalEdgeStyle;rounded=0;orthogonalLoop=1;jettySize=auto;html=1;endSize=16;startSize=16;endArrow=ERmany;endFill=0;startArrow=ERone;startFill=0;" edge="1" parent="iSjNtKFaTPLjjzOFtwBr-1">
          <mxGeometry relative="1" as="geometry">
            <mxPoint x="-330" y="790" as="sourcePoint" />
            <mxPoint x="-475" y="1101" as="targetPoint" />
            <Array as="points">
              <mxPoint x="-330" y="790" />
              <mxPoint x="-400" y="790" />
              <mxPoint x="-400" y="1101" />
            </Array>
          </mxGeometry>
        </mxCell>
        <mxCell id="iSjNtKFaTPLjjzOFtwBr-22" value="&lt;div style=&quot;box-sizing:border-box;width:100%;background:#e4e4e4;padding:2px;&quot;&gt;historical_commodity_values&lt;/div&gt;&lt;table style=&quot;width:100%;font-size:1em;&quot; cellpadding=&quot;2&quot; cellspacing=&quot;0&quot;&gt;&lt;tbody&gt;&lt;tr&gt;&lt;td&gt;PK, FK&lt;br&gt;&lt;/td&gt;&lt;td&gt;commodity_id&lt;/td&gt;&lt;td&gt;bigint&lt;br&gt;&lt;/td&gt;&lt;/tr&gt;&lt;tr&gt;&lt;td&gt;PK&lt;/td&gt;&lt;td&gt;date&lt;br&gt;&lt;/td&gt;&lt;td&gt;datetime&lt;br&gt;&lt;/td&gt;&lt;/tr&gt;&lt;tr&gt;&lt;td&gt;&lt;/td&gt;&lt;td&gt;open&lt;br&gt;&lt;/td&gt;&lt;td&gt;decimal&lt;br&gt;&lt;/td&gt;&lt;/tr&gt;&lt;tr&gt;&lt;td&gt;&lt;br&gt;&lt;/td&gt;&lt;td&gt;high&lt;br&gt;low&lt;/td&gt;&lt;td&gt;decimal&lt;br&gt;decimal&lt;/td&gt;&lt;/tr&gt;&lt;tr&gt;&lt;td&gt;&lt;br&gt;&lt;/td&gt;&lt;td&gt;close&lt;br&gt;adjClose&lt;br&gt;volume&lt;br&gt;unadjustedVolume&lt;br&gt;change&lt;br&gt;changePercentage&lt;br&gt;vwap&lt;br&gt;changeOverTime&lt;/td&gt;&lt;td&gt;decimal&lt;br&gt;decimal&lt;br&gt;bigint&lt;br&gt;bigint&lt;br&gt;decimal&lt;br&gt;decimal&lt;br&gt;decimal&lt;br&gt;decimal&lt;/td&gt;&lt;/tr&gt;&lt;/tbody&gt;&lt;/table&gt;" style="verticalAlign=top;align=left;overflow=fill;html=1;whiteSpace=wrap;" vertex="1" parent="iSjNtKFaTPLjjzOFtwBr-1">
          <mxGeometry x="130" y="1190" width="230" height="240" as="geometry" />
        </mxCell>
        <mxCell id="iSjNtKFaTPLjjzOFtwBr-23" value="&lt;div style=&quot;box-sizing:border-box;width:100%;background:#e4e4e4;padding:2px;&quot;&gt;realtime_commodity_values&lt;/div&gt;&lt;table style=&quot;width:100%;font-size:1em;&quot; cellpadding=&quot;2&quot; cellspacing=&quot;0&quot;&gt;&lt;tbody&gt;&lt;tr&gt;&lt;td&gt;PK, FK&lt;br&gt;&lt;/td&gt;&lt;td&gt;commodity_id&lt;/td&gt;&lt;td&gt;bigint&lt;br&gt;&lt;/td&gt;&lt;/tr&gt;&lt;tr&gt;&lt;td&gt;PK&lt;/td&gt;&lt;td&gt;date&lt;/td&gt;&lt;td&gt;datetime&lt;br&gt;&lt;/td&gt;&lt;/tr&gt;&lt;tr&gt;&lt;td&gt;&lt;/td&gt;&lt;td&gt;price&lt;br&gt;&lt;/td&gt;&lt;td&gt;decimal&lt;br&gt;&lt;/td&gt;&lt;/tr&gt;&lt;tr&gt;&lt;td&gt;&lt;br&gt;&lt;/td&gt;&lt;td&gt;changePercentage&lt;br&gt;&lt;/td&gt;&lt;td&gt;decimal&lt;br&gt;&lt;/td&gt;&lt;/tr&gt;&lt;tr&gt;&lt;td&gt;&lt;br&gt;&lt;/td&gt;&lt;td&gt;change&lt;br&gt;&lt;/td&gt;&lt;td&gt;decimal&lt;br&gt;&lt;/td&gt;&lt;/tr&gt;&lt;tr&gt;&lt;td&gt;&lt;br&gt;&lt;/td&gt;&lt;td&gt;dayHigh&lt;br&gt;&lt;/td&gt;&lt;td&gt;decimal&lt;br&gt;&lt;/td&gt;&lt;/tr&gt;&lt;tr&gt;&lt;td&gt;&lt;br&gt;&lt;/td&gt;&lt;td&gt;dayLow&lt;br&gt;&lt;/td&gt;&lt;td&gt;decimal&lt;br&gt;&lt;/td&gt;&lt;/tr&gt;&lt;tr&gt;&lt;td&gt;&lt;br&gt;&lt;/td&gt;&lt;td&gt;yearHigh&lt;br&gt;&lt;/td&gt;&lt;td&gt;decimal&lt;br&gt;&lt;/td&gt;&lt;/tr&gt;&lt;tr&gt;&lt;td&gt;&lt;br&gt;&lt;/td&gt;&lt;td&gt;yearLow&lt;br&gt;&lt;/td&gt;&lt;td&gt;decimal&lt;br&gt;&lt;/td&gt;&lt;/tr&gt;&lt;tr&gt;&lt;td&gt;&lt;br&gt;&lt;br&gt;&lt;/td&gt;&lt;td&gt;mktCap&lt;br&gt;exchange&lt;/td&gt;&lt;td&gt;bigint&lt;br&gt;varchar(20)&lt;/td&gt;&lt;/tr&gt;&lt;tr&gt;&lt;td&gt;&lt;br&gt;&lt;/td&gt;&lt;td&gt;open&lt;br&gt;&lt;/td&gt;&lt;td&gt;decimal&lt;br&gt;&lt;/td&gt;&lt;/tr&gt;&lt;tr&gt;&lt;td&gt;&lt;br&gt;&lt;/td&gt;&lt;td&gt;prevClose&lt;br&gt;volume&lt;/td&gt;&lt;td&gt;decimal&lt;br&gt;decimal&lt;/td&gt;&lt;/tr&gt;&lt;tr&gt;&lt;td&gt;&lt;br&gt;&lt;/td&gt;&lt;td&gt;volAvg&lt;br&gt;&lt;/td&gt;&lt;td&gt;decimal&lt;br&gt;&lt;/td&gt;&lt;/tr&gt;&lt;tr&gt;&lt;td&gt;&lt;/td&gt;&lt;td&gt;&lt;/td&gt;&lt;td&gt;&lt;br&gt;&lt;/td&gt;&lt;/tr&gt;&lt;tr&gt;&lt;td&gt;&lt;/td&gt;&lt;td&gt;&lt;/td&gt;&lt;td&gt;&lt;br&gt;&lt;br&gt;&lt;/td&gt;&lt;/tr&gt;&lt;/tbody&gt;&lt;/table&gt;" style="verticalAlign=top;align=left;overflow=fill;html=1;whiteSpace=wrap;" vertex="1" parent="iSjNtKFaTPLjjzOFtwBr-1">
          <mxGeometry x="130" y="880" width="260" height="290" as="geometry" />
        </mxCell>
        <mxCell id="y1HxVAD1R0oMUt7Rkm-C-2" style="edgeStyle=orthogonalEdgeStyle;rounded=0;orthogonalLoop=1;jettySize=auto;html=1;entryX=1.008;entryY=0.262;entryDx=0;entryDy=0;entryPerimeter=0;startArrow=ERone;startFill=0;endArrow=ERmany;endFill=0;endSize=16;startSize=16;" edge="1" parent="iSjNtKFaTPLjjzOFtwBr-1" source="iSjNtKFaTPLjjzOFtwBr-11" target="iSjNtKFaTPLjjzOFtwBr-13">
          <mxGeometry relative="1" as="geometry" />
        </mxCell>
      </root>
    </mxGraphModel>
  </diagram>
  <diagram name="Page-1" id="imkHwuTyhQrSmMCx-L6D">
    <mxGraphModel grid="1" page="1" gridSize="10" guides="1" tooltips="1" connect="1" arrows="1" fold="1" pageScale="1" pageWidth="850" pageHeight="1100" math="0" shadow="0">
      <root>
        <mxCell id="0" />
        <mxCell id="1" parent="0" />
        <mxCell id="NYa0tjk2ZSPUIs098ws_-60" value="&lt;div style=&quot;box-sizing:border-box;width:100%;background:#e4e4e4;padding:2px;&quot;&gt;companies&lt;/div&gt;&lt;table style=&quot;width:100%;font-size:1em;&quot; cellpadding=&quot;2&quot; cellspacing=&quot;0&quot;&gt;&lt;tbody&gt;&lt;tr&gt;&lt;td&gt;PK&lt;/td&gt;&lt;td&gt;id&lt;/td&gt;&lt;td&gt;bigint&lt;br&gt;&lt;/td&gt;&lt;td&gt;&lt;br&gt;&lt;/td&gt;&lt;/tr&gt;&lt;tr&gt;&lt;td&gt;&lt;/td&gt;&lt;td&gt;companyName&lt;br&gt;&lt;/td&gt;&lt;td&gt;varchar(30)&lt;br&gt;&lt;/td&gt;&lt;td&gt;&lt;br&gt;&lt;/td&gt;&lt;/tr&gt;&lt;tr&gt;&lt;td&gt;&lt;br&gt;&lt;/td&gt;&lt;td&gt;symbol&lt;br&gt;&lt;/td&gt;&lt;td&gt;varchar(10)&lt;br&gt;&lt;/td&gt;&lt;td&gt;&lt;br&gt;&lt;/td&gt;&lt;/tr&gt;&lt;/tbody&gt;&lt;/table&gt;" style="verticalAlign=top;align=left;overflow=fill;html=1;whiteSpace=wrap;" vertex="1" parent="1">
          <mxGeometry x="-510" y="150" width="220" height="90" as="geometry" />
        </mxCell>
        <mxCell id="oI_yeTTkce_tpwqwFBoh-7" style="edgeStyle=orthogonalEdgeStyle;rounded=0;orthogonalLoop=1;jettySize=auto;html=1;endSize=16;startSize=16;endArrow=ERmany;endFill=0;startArrow=ERone;startFill=0;" edge="1" parent="1" source="oI_yeTTkce_tpwqwFBoh-2" target="oI_yeTTkce_tpwqwFBoh-4">
          <mxGeometry relative="1" as="geometry" />
        </mxCell>
        <mxCell id="oI_yeTTkce_tpwqwFBoh-2" value="&lt;div style=&quot;box-sizing:border-box;width:100%;background:#e4e4e4;padding:2px;&quot;&gt;indexes&lt;/div&gt;&lt;table style=&quot;width:100%;font-size:1em;&quot; cellpadding=&quot;2&quot; cellspacing=&quot;0&quot;&gt;&lt;tbody&gt;&lt;tr&gt;&lt;td&gt;PK&lt;/td&gt;&lt;td&gt;id&lt;/td&gt;&lt;td&gt;bigint&lt;br&gt;&lt;/td&gt;&lt;/tr&gt;&lt;tr&gt;&lt;td&gt;&lt;br&gt;&lt;/td&gt;&lt;td&gt;indexName&lt;/td&gt;&lt;td&gt;varchar(30)&lt;br&gt;&lt;/td&gt;&lt;/tr&gt;&lt;tr&gt;&lt;td&gt;&lt;/td&gt;&lt;td&gt;symbol&lt;/td&gt;&lt;td&gt;varchar(10)&lt;br&gt;&lt;/td&gt;&lt;/tr&gt;&lt;/tbody&gt;&lt;/table&gt;" style="verticalAlign=top;align=left;overflow=fill;html=1;whiteSpace=wrap;" vertex="1" parent="1">
          <mxGeometry x="-530" y="765" width="170" height="90" as="geometry" />
        </mxCell>
        <mxCell id="oI_yeTTkce_tpwqwFBoh-3" value="&lt;div style=&quot;box-sizing:border-box;width:100%;background:#e4e4e4;padding:2px;&quot;&gt;commodities&lt;/div&gt;&lt;table style=&quot;width:100%;font-size:1em;&quot; cellpadding=&quot;2&quot; cellspacing=&quot;0&quot;&gt;&lt;tbody&gt;&lt;tr&gt;&lt;td&gt;PK&lt;/td&gt;&lt;td&gt;id&lt;/td&gt;&lt;td&gt;bigint&lt;br&gt;&lt;/td&gt;&lt;/tr&gt;&lt;tr&gt;&lt;td&gt;&lt;br&gt;&lt;/td&gt;&lt;td&gt;commodityName&lt;/td&gt;&lt;td&gt;varchar(30)&lt;br&gt;&lt;/td&gt;&lt;/tr&gt;&lt;tr&gt;&lt;td&gt;&lt;/td&gt;&lt;td&gt;symbol&lt;/td&gt;&lt;td&gt;varchar(10)&lt;br&gt;&lt;/td&gt;&lt;/tr&gt;&lt;/tbody&gt;&lt;/table&gt;" style="verticalAlign=top;align=left;overflow=fill;html=1;whiteSpace=wrap;" vertex="1" parent="1">
          <mxGeometry x="-527.5" y="626" width="205" height="90" as="geometry" />
        </mxCell>
        <mxCell id="oI_yeTTkce_tpwqwFBoh-4" value="&lt;div style=&quot;box-sizing:border-box;width:100%;background:#e4e4e4;padding:2px;&quot;&gt;index_values&lt;/div&gt;&lt;table style=&quot;width:100%;font-size:1em;&quot; cellpadding=&quot;2&quot; cellspacing=&quot;0&quot;&gt;&lt;tbody&gt;&lt;tr&gt;&lt;td&gt;PK, FK&lt;br&gt;&lt;/td&gt;&lt;td&gt;index_id&lt;br&gt;&lt;/td&gt;&lt;td&gt;bigint&lt;br&gt;&lt;/td&gt;&lt;/tr&gt;&lt;tr&gt;&lt;td&gt;PK&lt;br&gt;&lt;/td&gt;&lt;td&gt;date&lt;/td&gt;&lt;td&gt;datetime&lt;br&gt;&lt;/td&gt;&lt;/tr&gt;&lt;tr&gt;&lt;td&gt;&lt;/td&gt;&lt;td&gt;price&lt;br&gt;&lt;/td&gt;&lt;td&gt;decimal&lt;br&gt;&lt;/td&gt;&lt;/tr&gt;&lt;tr&gt;&lt;td&gt;&lt;br&gt;&lt;/td&gt;&lt;td&gt;extendedPrice&lt;br&gt;&lt;/td&gt;&lt;td&gt;decimal&lt;br&gt;&lt;/td&gt;&lt;/tr&gt;&lt;tr&gt;&lt;td&gt;&lt;br&gt;&lt;/td&gt;&lt;td&gt;change&lt;br&gt;&lt;/td&gt;&lt;td&gt;decimal&lt;br&gt;&lt;/td&gt;&lt;/tr&gt;&lt;tr&gt;&lt;td&gt;&lt;br&gt;&lt;/td&gt;&lt;td&gt;dayHigh&lt;br&gt;&lt;/td&gt;&lt;td&gt;decimal&lt;br&gt;&lt;/td&gt;&lt;/tr&gt;&lt;tr&gt;&lt;td&gt;&lt;br&gt;&lt;/td&gt;&lt;td&gt;dayLow&lt;br&gt;&lt;/td&gt;&lt;td&gt;decimal&lt;br&gt;&lt;/td&gt;&lt;/tr&gt;&lt;tr&gt;&lt;td&gt;&lt;br&gt;&lt;/td&gt;&lt;td&gt;previousClose&lt;br&gt;&lt;/td&gt;&lt;td&gt;decimal&lt;br&gt;&lt;/td&gt;&lt;/tr&gt;&lt;tr&gt;&lt;td&gt;&lt;br&gt;&lt;/td&gt;&lt;td&gt;volume&lt;br&gt;&lt;/td&gt;&lt;td&gt;decimal&lt;br&gt;&lt;/td&gt;&lt;/tr&gt;&lt;tr&gt;&lt;td&gt;&lt;br&gt;&lt;/td&gt;&lt;td&gt;open&lt;br&gt;&lt;/td&gt;&lt;td&gt;decimal&lt;br&gt;&lt;/td&gt;&lt;/tr&gt;&lt;tr&gt;&lt;td&gt;&lt;br&gt;&lt;/td&gt;&lt;td&gt;close&lt;br&gt;&lt;/td&gt;&lt;td&gt;decimal&lt;br&gt;&lt;/td&gt;&lt;/tr&gt;&lt;tr&gt;&lt;td&gt;&lt;br&gt;&lt;/td&gt;&lt;td&gt;yearHigh&lt;br&gt;&lt;/td&gt;&lt;td&gt;decimal&lt;br&gt;&lt;/td&gt;&lt;/tr&gt;&lt;tr&gt;&lt;td&gt;&lt;br&gt;&lt;/td&gt;&lt;td&gt;yearLow&lt;br&gt;&lt;/td&gt;&lt;td&gt;decimal&lt;br&gt;&lt;/td&gt;&lt;/tr&gt;&lt;tr&gt;&lt;td&gt;&lt;br&gt;&lt;/td&gt;&lt;td&gt;changesPercentage&lt;br&gt;&lt;/td&gt;&lt;td&gt;decimal&lt;br&gt;&lt;/td&gt;&lt;/tr&gt;&lt;/tbody&gt;&lt;/table&gt;" style="verticalAlign=top;align=left;overflow=fill;html=1;whiteSpace=wrap;" vertex="1" parent="1">
          <mxGeometry x="-840" y="670" width="230" height="280" as="geometry" />
        </mxCell>
        <mxCell id="NYa0tjk2ZSPUIs098ws_-63" value="&lt;div style=&quot;box-sizing:border-box;width:100%;background:#e4e4e4;padding:2px;&quot;&gt;historical_stock_values&lt;/div&gt;&lt;table style=&quot;width:100%;font-size:1em;&quot; cellpadding=&quot;2&quot; cellspacing=&quot;0&quot;&gt;&lt;tbody&gt;&lt;tr&gt;&lt;td&gt;PK, FK&lt;br&gt;&lt;/td&gt;&lt;td&gt;company_id&lt;/td&gt;&lt;td&gt;bigint&lt;br&gt;&lt;/td&gt;&lt;/tr&gt;&lt;tr&gt;&lt;td&gt;PK&lt;/td&gt;&lt;td&gt;date&lt;br&gt;&lt;/td&gt;&lt;td&gt;datetime&lt;br&gt;&lt;/td&gt;&lt;/tr&gt;&lt;tr&gt;&lt;td&gt;&lt;/td&gt;&lt;td&gt;price&lt;br&gt;&lt;/td&gt;&lt;td&gt;decimal&lt;br&gt;&lt;/td&gt;&lt;/tr&gt;&lt;tr&gt;&lt;td&gt;&lt;br&gt;&lt;/td&gt;&lt;td&gt;changesPercentage&lt;br&gt;&lt;/td&gt;&lt;td&gt;decimal&lt;br&gt;&lt;/td&gt;&lt;/tr&gt;&lt;tr&gt;&lt;td&gt;&lt;br&gt;&lt;/td&gt;&lt;td&gt;change&lt;br&gt;&lt;/td&gt;&lt;td&gt;decimal&lt;br&gt;&lt;/td&gt;&lt;/tr&gt;&lt;tr&gt;&lt;td&gt;&lt;br&gt;&lt;/td&gt;&lt;td&gt;dayHigh&lt;br&gt;&lt;/td&gt;&lt;td&gt;decimal&lt;br&gt;&lt;/td&gt;&lt;/tr&gt;&lt;tr&gt;&lt;td&gt;&lt;br&gt;&lt;/td&gt;&lt;td&gt;dayLow&lt;br&gt;&lt;/td&gt;&lt;td&gt;decimal&lt;br&gt;&lt;/td&gt;&lt;/tr&gt;&lt;tr&gt;&lt;td&gt;&lt;br&gt;&lt;/td&gt;&lt;td&gt;yearHigh&lt;br&gt;&lt;/td&gt;&lt;td&gt;decimal&lt;br&gt;&lt;/td&gt;&lt;/tr&gt;&lt;tr&gt;&lt;td&gt;&lt;br&gt;&lt;/td&gt;&lt;td&gt;yearLow&lt;br&gt;&lt;/td&gt;&lt;td&gt;decimal&lt;br&gt;&lt;/td&gt;&lt;/tr&gt;&lt;tr&gt;&lt;td&gt;&lt;br&gt;&lt;/td&gt;&lt;td&gt;mktCap&lt;br&gt;&lt;/td&gt;&lt;td&gt;bigint&lt;/td&gt;&lt;/tr&gt;&lt;tr&gt;&lt;td&gt;&lt;br&gt;&lt;/td&gt;&lt;td&gt;open&lt;br&gt;&lt;/td&gt;&lt;td&gt;decimal&lt;br&gt;&lt;/td&gt;&lt;/tr&gt;&lt;tr&gt;&lt;td&gt;&lt;br&gt;&lt;/td&gt;&lt;td&gt;prevClose&lt;br&gt;&lt;/td&gt;&lt;td&gt;decimal&lt;br&gt;&lt;/td&gt;&lt;/tr&gt;&lt;tr&gt;&lt;td&gt;&lt;br&gt;&lt;/td&gt;&lt;td&gt;volAvg&lt;br&gt;&lt;/td&gt;&lt;td&gt;decimal&lt;br&gt;&lt;/td&gt;&lt;/tr&gt;&lt;tr&gt;&lt;td&gt;&lt;br&gt;&lt;/td&gt;&lt;td&gt;eps&lt;br&gt;&lt;/td&gt;&lt;td&gt;decimal&lt;br&gt;&lt;/td&gt;&lt;/tr&gt;&lt;tr&gt;&lt;td&gt;&lt;br&gt;&lt;/td&gt;&lt;td&gt;pe&lt;br&gt;&lt;/td&gt;&lt;td&gt;decimal&lt;br&gt;&lt;/td&gt;&lt;/tr&gt;&lt;/tbody&gt;&lt;/table&gt;" style="verticalAlign=top;align=left;overflow=fill;html=1;whiteSpace=wrap;" vertex="1" parent="1">
          <mxGeometry x="-840" y="330" width="230" height="296" as="geometry" />
        </mxCell>
        <mxCell id="oI_yeTTkce_tpwqwFBoh-8" value="&lt;div style=&quot;box-sizing:border-box;width:100%;background:#e4e4e4;padding:2px;&quot;&gt;commodity_values&lt;/div&gt;&lt;table style=&quot;width:100%;font-size:1em;&quot; cellpadding=&quot;2&quot; cellspacing=&quot;0&quot;&gt;&lt;tbody&gt;&lt;tr&gt;&lt;td&gt;PK, FK&lt;br&gt;&lt;/td&gt;&lt;td&gt;commodity_id&lt;br&gt;&lt;/td&gt;&lt;td&gt;bigint&lt;br&gt;&lt;/td&gt;&lt;/tr&gt;&lt;tr&gt;&lt;td&gt;PK&lt;br&gt;&lt;/td&gt;&lt;td&gt;date&lt;/td&gt;&lt;td&gt;datetime&lt;br&gt;&lt;/td&gt;&lt;/tr&gt;&lt;tr&gt;&lt;td&gt;&lt;/td&gt;&lt;td&gt;open&lt;br&gt;&lt;/td&gt;&lt;td&gt;decimal&lt;br&gt;&lt;/td&gt;&lt;/tr&gt;&lt;tr&gt;&lt;td&gt;&lt;br&gt;&lt;/td&gt;&lt;td&gt;high&lt;br&gt;&lt;/td&gt;&lt;td&gt;decimal&lt;br&gt;&lt;/td&gt;&lt;/tr&gt;&lt;tr&gt;&lt;td&gt;&lt;br&gt;&lt;/td&gt;&lt;td&gt;low&lt;br&gt;&lt;/td&gt;&lt;td&gt;decimal&lt;br&gt;&lt;/td&gt;&lt;/tr&gt;&lt;tr&gt;&lt;td&gt;&lt;br&gt;&lt;/td&gt;&lt;td&gt;close&lt;br&gt;&lt;/td&gt;&lt;td&gt;decimal&lt;br&gt;&lt;/td&gt;&lt;/tr&gt;&lt;tr&gt;&lt;td&gt;&lt;br&gt;&lt;/td&gt;&lt;td&gt;adjClose&lt;br&gt;&lt;/td&gt;&lt;td&gt;decimal&lt;br&gt;&lt;/td&gt;&lt;/tr&gt;&lt;tr&gt;&lt;td&gt;&lt;br&gt;&lt;/td&gt;&lt;td&gt;volume&lt;br&gt;&lt;/td&gt;&lt;td&gt;decimal&lt;br&gt;&lt;/td&gt;&lt;/tr&gt;&lt;tr&gt;&lt;td&gt;&lt;br&gt;&lt;/td&gt;&lt;td&gt;unadjustedVolume&lt;br&gt;&lt;/td&gt;&lt;td&gt;decimal&lt;br&gt;&lt;/td&gt;&lt;/tr&gt;&lt;tr&gt;&lt;td&gt;&lt;br&gt;&lt;/td&gt;&lt;td&gt;change&lt;br&gt;&lt;/td&gt;&lt;td&gt;decimal&lt;br&gt;&lt;/td&gt;&lt;/tr&gt;&lt;tr&gt;&lt;td&gt;&lt;br&gt;&lt;/td&gt;&lt;td&gt;changePercent&lt;br&gt;&lt;/td&gt;&lt;td&gt;decimal&lt;br&gt;&lt;/td&gt;&lt;/tr&gt;&lt;tr&gt;&lt;td&gt;&lt;br&gt;&lt;/td&gt;&lt;td&gt;vwap&lt;br&gt;&lt;/td&gt;&lt;td&gt;decimal&lt;br&gt;&lt;/td&gt;&lt;/tr&gt;&lt;tr&gt;&lt;td&gt;&lt;br&gt;&lt;/td&gt;&lt;td&gt;changeOverTime&lt;br&gt;&lt;/td&gt;&lt;td&gt;decimal&lt;br&gt;&lt;/td&gt;&lt;/tr&gt;&lt;/tbody&gt;&lt;/table&gt;" style="verticalAlign=top;align=left;overflow=fill;html=1;whiteSpace=wrap;" vertex="1" parent="1">
          <mxGeometry x="-250" y="806" width="230" height="261" as="geometry" />
        </mxCell>
        <mxCell id="oI_yeTTkce_tpwqwFBoh-10" value="&lt;div style=&quot;box-sizing:border-box;width:100%;background:#e4e4e4;padding:2px;&quot;&gt;company_statements&lt;/div&gt;&lt;table style=&quot;width:100%;font-size:1em;&quot; cellpadding=&quot;2&quot; cellspacing=&quot;0&quot;&gt;&lt;tbody&gt;&lt;tr&gt;&lt;td&gt;PK, FK&lt;br&gt;&lt;/td&gt;&lt;td&gt;company_id&lt;br&gt;&lt;/td&gt;&lt;td&gt;bigint&lt;br&gt;&lt;/td&gt;&lt;/tr&gt;&lt;tr&gt;&lt;td&gt;PK&lt;br&gt;&lt;/td&gt;&lt;td&gt;date&lt;/td&gt;&lt;td&gt;datetime&lt;br&gt;&lt;/td&gt;&lt;/tr&gt;&lt;tr&gt;&lt;td&gt;&lt;/td&gt;&lt;td&gt;sector&lt;br&gt;&lt;/td&gt;&lt;td&gt;varchar(30)&lt;br&gt;&lt;/td&gt;&lt;/tr&gt;&lt;tr&gt;&lt;td&gt;&lt;br&gt;&lt;/td&gt;&lt;td&gt;industry&lt;br&gt;&lt;/td&gt;&lt;td&gt;varchar(30)&lt;br&gt;&lt;/td&gt;&lt;/tr&gt;&lt;tr&gt;&lt;td&gt;&lt;br&gt;&lt;/td&gt;&lt;td&gt;fullTimeEmployees&lt;br&gt;&lt;/td&gt;&lt;td&gt;integer&lt;br&gt;&lt;/td&gt;&lt;/tr&gt;&lt;tr&gt;&lt;td&gt;&lt;br&gt;&lt;/td&gt;&lt;td&gt;marketCap&lt;br&gt;&lt;/td&gt;&lt;td&gt;bigint&lt;/td&gt;&lt;/tr&gt;&lt;tr&gt;&lt;td&gt;&lt;br&gt;&lt;/td&gt;&lt;td&gt;trailingPE&lt;br&gt;&lt;/td&gt;&lt;td&gt;decimal&lt;br&gt;&lt;/td&gt;&lt;/tr&gt;&lt;tr&gt;&lt;td&gt;&lt;br&gt;&lt;/td&gt;&lt;td&gt;shortOfFloat&lt;br&gt;&lt;/td&gt;&lt;td&gt;decimal&lt;br&gt;&lt;/td&gt;&lt;/tr&gt;&lt;tr&gt;&lt;td&gt;&lt;br&gt;&lt;/td&gt;&lt;td&gt;trailingAnnualDividendYield&lt;br&gt;&lt;/td&gt;&lt;td&gt;decimal&lt;br&gt;&lt;/td&gt;&lt;/tr&gt;&lt;tr&gt;&lt;td&gt;&lt;br&gt;&lt;/td&gt;&lt;td&gt;enterpriseValue&lt;br&gt;&lt;/td&gt;&lt;td&gt;decimal&lt;br&gt;&lt;/td&gt;&lt;/tr&gt;&lt;tr&gt;&lt;td&gt;&lt;br&gt;&lt;/td&gt;&lt;td&gt;netIncome&lt;br&gt;&lt;/td&gt;&lt;td&gt;decimal&lt;br&gt;&lt;/td&gt;&lt;/tr&gt;&lt;tr&gt;&lt;td&gt;&lt;br&gt;&lt;/td&gt;&lt;td&gt;revenue&lt;br&gt;&lt;/td&gt;&lt;td&gt;decimal&lt;br&gt;&lt;/td&gt;&lt;/tr&gt;&lt;tr&gt;&lt;td&gt;&lt;br&gt;&lt;/td&gt;&lt;td&gt;returnOnAssets&lt;br&gt;&lt;/td&gt;&lt;td&gt;decimal&lt;br&gt;&lt;/td&gt;&lt;/tr&gt;&lt;tr&gt;&lt;td&gt;&lt;br&gt;&lt;/td&gt;&lt;td&gt;returnOnEquity&lt;br&gt;&lt;/td&gt;&lt;td&gt;decimal&lt;br&gt;&lt;/td&gt;&lt;/tr&gt;&lt;/tbody&gt;&lt;/table&gt;" style="verticalAlign=top;align=left;overflow=fill;html=1;whiteSpace=wrap;" vertex="1" parent="1">
          <mxGeometry x="-290" y="290" width="270" height="300" as="geometry" />
        </mxCell>
        <mxCell id="NYa0tjk2ZSPUIs098ws_-65" value="&lt;div style=&quot;box-sizing:border-box;width:100%;background:#e4e4e4;padding:2px;&quot;&gt;realtime_stock_values&lt;/div&gt;&lt;table style=&quot;width:100%;font-size:1em;&quot; cellpadding=&quot;2&quot; cellspacing=&quot;0&quot;&gt;&lt;tbody&gt;&lt;tr&gt;&lt;td&gt;PK, FK&lt;br&gt;&lt;/td&gt;&lt;td&gt;company_id&lt;/td&gt;&lt;td&gt;bigint&lt;br&gt;&lt;/td&gt;&lt;/tr&gt;&lt;tr&gt;&lt;td&gt;PK&lt;/td&gt;&lt;td&gt;date&lt;br&gt;&lt;/td&gt;&lt;td&gt;datetime&lt;br&gt;&lt;/td&gt;&lt;/tr&gt;&lt;tr&gt;&lt;td&gt;&lt;/td&gt;&lt;td&gt;price&lt;br&gt;&lt;/td&gt;&lt;td&gt;decimal&lt;br&gt;&lt;/td&gt;&lt;/tr&gt;&lt;tr&gt;&lt;td&gt;&lt;br&gt;&lt;/td&gt;&lt;td&gt;changesPercentage&lt;br&gt;&lt;/td&gt;&lt;td&gt;decimal&lt;br&gt;&lt;/td&gt;&lt;/tr&gt;&lt;tr&gt;&lt;td&gt;&lt;br&gt;&lt;/td&gt;&lt;td&gt;change&lt;br&gt;&lt;/td&gt;&lt;td&gt;decimal&lt;br&gt;&lt;/td&gt;&lt;/tr&gt;&lt;tr&gt;&lt;td&gt;&lt;br&gt;&lt;/td&gt;&lt;td&gt;dayHigh&lt;br&gt;&lt;/td&gt;&lt;td&gt;decimal&lt;br&gt;&lt;/td&gt;&lt;/tr&gt;&lt;tr&gt;&lt;td&gt;&lt;br&gt;&lt;/td&gt;&lt;td&gt;dayLow&lt;br&gt;&lt;/td&gt;&lt;td&gt;decimal&lt;br&gt;&lt;/td&gt;&lt;/tr&gt;&lt;tr&gt;&lt;td&gt;&lt;br&gt;&lt;/td&gt;&lt;td&gt;yearHigh&lt;br&gt;&lt;/td&gt;&lt;td&gt;decimal&lt;br&gt;&lt;/td&gt;&lt;/tr&gt;&lt;tr&gt;&lt;td&gt;&lt;br&gt;&lt;/td&gt;&lt;td&gt;yearLow&lt;br&gt;&lt;/td&gt;&lt;td&gt;decimal&lt;br&gt;&lt;/td&gt;&lt;/tr&gt;&lt;tr&gt;&lt;td&gt;&lt;br&gt;&lt;/td&gt;&lt;td&gt;mktCap&lt;br&gt;&lt;/td&gt;&lt;td&gt;bigint&lt;/td&gt;&lt;/tr&gt;&lt;tr&gt;&lt;td&gt;&lt;br&gt;&lt;/td&gt;&lt;td&gt;open&lt;br&gt;&lt;/td&gt;&lt;td&gt;decimal&lt;br&gt;&lt;/td&gt;&lt;/tr&gt;&lt;tr&gt;&lt;td&gt;&lt;br&gt;&lt;/td&gt;&lt;td&gt;prevClose&lt;br&gt;&lt;/td&gt;&lt;td&gt;decimal&lt;br&gt;&lt;/td&gt;&lt;/tr&gt;&lt;tr&gt;&lt;td&gt;&lt;br&gt;&lt;/td&gt;&lt;td&gt;volAvg&lt;br&gt;&lt;/td&gt;&lt;td&gt;decimal&lt;br&gt;&lt;/td&gt;&lt;/tr&gt;&lt;tr&gt;&lt;td&gt;&lt;br&gt;&lt;/td&gt;&lt;td&gt;eps&lt;br&gt;&lt;/td&gt;&lt;td&gt;decimal&lt;br&gt;&lt;/td&gt;&lt;/tr&gt;&lt;tr&gt;&lt;td&gt;&lt;br&gt;&lt;/td&gt;&lt;td&gt;pe&lt;br&gt;&lt;/td&gt;&lt;td&gt;decimal&lt;br&gt;&lt;/td&gt;&lt;/tr&gt;&lt;/tbody&gt;&lt;/table&gt;" style="verticalAlign=top;align=left;overflow=fill;html=1;whiteSpace=wrap;" vertex="1" parent="1">
          <mxGeometry x="-840" y="10" width="230" height="296" as="geometry" />
        </mxCell>
        <mxCell id="NYa0tjk2ZSPUIs098ws_-66" style="edgeStyle=orthogonalEdgeStyle;rounded=0;orthogonalLoop=1;jettySize=auto;html=1;entryX=0.996;entryY=0.084;entryDx=0;entryDy=0;entryPerimeter=0;endArrow=ERmany;endFill=0;startArrow=ERone;startFill=0;endSize=16;startSize=16;" edge="1" parent="1" target="NYa0tjk2ZSPUIs098ws_-65">
          <mxGeometry relative="1" as="geometry">
            <mxPoint x="-510" y="180" as="sourcePoint" />
          </mxGeometry>
        </mxCell>
        <mxCell id="oI_yeTTkce_tpwqwFBoh-11" value="&lt;div style=&quot;box-sizing:border-box;width:100%;background:#e4e4e4;padding:2px;&quot;&gt;bonds&lt;/div&gt;&lt;table style=&quot;width:100%;font-size:1em;&quot; cellpadding=&quot;2&quot; cellspacing=&quot;0&quot;&gt;&lt;tbody&gt;&lt;tr&gt;&lt;td&gt;PK&lt;/td&gt;&lt;td&gt;bond_id&lt;/td&gt;&lt;td&gt;bigint&lt;br&gt;&lt;/td&gt;&lt;/tr&gt;&lt;tr&gt;&lt;td&gt;&lt;br&gt;&lt;/td&gt;&lt;td&gt;country&lt;/td&gt;&lt;td&gt;varchar(30)&lt;br&gt;&lt;/td&gt;&lt;/tr&gt;&lt;tr&gt;&lt;td&gt;&lt;/td&gt;&lt;td&gt;duration&lt;br&gt;&lt;/td&gt;&lt;td&gt;varchar(10)&lt;br&gt;&lt;/td&gt;&lt;/tr&gt;&lt;tr&gt;&lt;td&gt;&lt;br&gt;&lt;/td&gt;&lt;td&gt;currency&lt;br&gt;&lt;/td&gt;&lt;td&gt;varchar(8)&lt;br&gt;&lt;/td&gt;&lt;/tr&gt;&lt;/tbody&gt;&lt;/table&gt;" style="verticalAlign=top;align=left;overflow=fill;html=1;whiteSpace=wrap;" vertex="1" parent="1">
          <mxGeometry x="-527.5" y="977" width="170" height="100" as="geometry" />
        </mxCell>
        <mxCell id="NYa0tjk2ZSPUIs098ws_-67" style="edgeStyle=orthogonalEdgeStyle;rounded=0;orthogonalLoop=1;jettySize=auto;html=1;entryX=1.004;entryY=0.088;entryDx=0;entryDy=0;entryPerimeter=0;startSize=16;endSize=16;endArrow=ERmany;endFill=0;startArrow=ERone;startFill=0;" edge="1" parent="1" target="NYa0tjk2ZSPUIs098ws_-63">
          <mxGeometry relative="1" as="geometry">
            <mxPoint x="-510" y="180" as="sourcePoint" />
          </mxGeometry>
        </mxCell>
        <mxCell id="oI_yeTTkce_tpwqwFBoh-13" value="&lt;div style=&quot;box-sizing:border-box;width:100%;background:#e4e4e4;padding:2px;&quot;&gt;bond_values&lt;/div&gt;&lt;table style=&quot;width:100%;font-size:1em;&quot; cellpadding=&quot;2&quot; cellspacing=&quot;0&quot;&gt;&lt;tbody&gt;&lt;tr&gt;&lt;td&gt;PK, FK&lt;br&gt;&lt;/td&gt;&lt;td&gt;bond_id&lt;br&gt;&lt;/td&gt;&lt;td&gt;bigint&lt;br&gt;&lt;/td&gt;&lt;/tr&gt;&lt;tr&gt;&lt;td&gt;PK&lt;br&gt;&lt;/td&gt;&lt;td&gt;date&lt;/td&gt;&lt;td&gt;datetime&lt;br&gt;&lt;/td&gt;&lt;/tr&gt;&lt;tr&gt;&lt;td&gt;&lt;/td&gt;&lt;td&gt;rate&lt;br&gt;&lt;/td&gt;&lt;td&gt;decimal&lt;br&gt;&lt;/td&gt;&lt;/tr&gt;&lt;/tbody&gt;&lt;/table&gt;" style="verticalAlign=top;align=left;overflow=fill;html=1;whiteSpace=wrap;" vertex="1" parent="1">
          <mxGeometry x="-840" y="974" width="180" height="80" as="geometry" />
        </mxCell>
        <mxCell id="NYa0tjk2ZSPUIs098ws_-68" style="edgeStyle=orthogonalEdgeStyle;rounded=0;orthogonalLoop=1;jettySize=auto;html=1;exitX=1;exitY=0.25;exitDx=0;exitDy=0;entryX=-0.006;entryY=0.096;entryDx=0;entryDy=0;entryPerimeter=0;endArrow=ERmany;endFill=0;startSize=16;endSize=16;startArrow=ERone;startFill=0;" edge="1" parent="1" source="oI_yeTTkce_tpwqwFBoh-3" target="oI_yeTTkce_tpwqwFBoh-8">
          <mxGeometry relative="1" as="geometry">
            <Array as="points">
              <mxPoint x="-290" y="649" />
              <mxPoint x="-290" y="831" />
            </Array>
          </mxGeometry>
        </mxCell>
        <mxCell id="NYa0tjk2ZSPUIs098ws_-70" style="edgeStyle=orthogonalEdgeStyle;rounded=0;orthogonalLoop=1;jettySize=auto;html=1;exitX=0;exitY=0.25;exitDx=0;exitDy=0;entryX=1.017;entryY=0.35;entryDx=0;entryDy=0;entryPerimeter=0;endSize=16;startSize=16;startArrow=ERone;startFill=0;endArrow=ERmany;endFill=0;" edge="1" parent="1" source="oI_yeTTkce_tpwqwFBoh-11" target="oI_yeTTkce_tpwqwFBoh-13">
          <mxGeometry relative="1" as="geometry" />
        </mxCell>
        <mxCell id="NYa0tjk2ZSPUIs098ws_-73" style="edgeStyle=orthogonalEdgeStyle;rounded=0;orthogonalLoop=1;jettySize=auto;html=1;exitX=0;exitY=0.25;exitDx=0;exitDy=0;entryX=-0.004;entryY=0.097;entryDx=0;entryDy=0;entryPerimeter=0;startArrow=ERone;startFill=0;startSize=16;endSize=16;endArrow=ERmany;endFill=0;" edge="1" parent="1">
          <mxGeometry relative="1" as="geometry">
            <mxPoint x="-509.99999999999994" y="180" as="sourcePoint" />
            <mxPoint x="-291.08000000000015" y="326.6000000000001" as="targetPoint" />
            <Array as="points">
              <mxPoint x="-530" y="180.5" />
              <mxPoint x="-530" y="326.5" />
            </Array>
          </mxGeometry>
        </mxCell>
        <mxCell id="XtNnPfD-gan6cxk6HKLC-1" value="&lt;div style=&quot;box-sizing:border-box;width:100%;background:#e4e4e4;padding:2px;&quot;&gt;company_changelogs&lt;/div&gt;&lt;table style=&quot;width:100%;font-size:1em;&quot; cellpadding=&quot;2&quot; cellspacing=&quot;0&quot;&gt;&lt;tbody&gt;&lt;tr&gt;&lt;td&gt;PK, FK&lt;br&gt;&lt;/td&gt;&lt;td&gt;company_id&lt;br&gt;&lt;/td&gt;&lt;td&gt;bigint&lt;br&gt;&lt;/td&gt;&lt;/tr&gt;&lt;tr&gt;&lt;td&gt;PK&lt;br&gt;&lt;/td&gt;&lt;td&gt;date&lt;/td&gt;&lt;td&gt;datetime&lt;br&gt;&lt;/td&gt;&lt;/tr&gt;&lt;tr&gt;&lt;td&gt;&lt;/td&gt;&lt;td&gt;companyName&lt;br&gt;&lt;/td&gt;&lt;td&gt;varchar(30)&lt;br&gt;&lt;/td&gt;&lt;/tr&gt;&lt;tr&gt;&lt;td&gt;&lt;br&gt;&lt;/td&gt;&lt;td&gt;newCompanyName&lt;br&gt;&lt;/td&gt;&lt;td&gt;varchar(30)&lt;br&gt;&lt;/td&gt;&lt;/tr&gt;&lt;tr&gt;&lt;td&gt;&lt;br&gt;&lt;/td&gt;&lt;td&gt;nameChanged&lt;br&gt;&lt;/td&gt;&lt;td&gt;boolean&lt;br&gt;&lt;/td&gt;&lt;/tr&gt;&lt;tr&gt;&lt;td&gt;&lt;br&gt;&lt;/td&gt;&lt;td&gt;symbol&lt;br&gt;&lt;/td&gt;&lt;td&gt;varchar(10)&lt;br&gt;&lt;/td&gt;&lt;/tr&gt;&lt;tr&gt;&lt;td&gt;&lt;br&gt;&lt;/td&gt;&lt;td&gt;newSymbol&lt;br&gt;&lt;/td&gt;&lt;td&gt;varchar(10)&lt;br&gt;&lt;/td&gt;&lt;/tr&gt;&lt;tr&gt;&lt;td&gt;&lt;br&gt;&lt;/td&gt;&lt;td&gt;symbolChanged&lt;br&gt;&lt;/td&gt;&lt;td&gt;boolean&lt;br&gt;&lt;/td&gt;&lt;/tr&gt;&lt;/tbody&gt;&lt;/table&gt;" style="verticalAlign=top;align=left;overflow=fill;html=1;whiteSpace=wrap;" vertex="1" parent="1">
          <mxGeometry x="-190" y="30" width="270" height="184" as="geometry" />
        </mxCell>
        <mxCell id="XtNnPfD-gan6cxk6HKLC-3" style="edgeStyle=orthogonalEdgeStyle;rounded=0;orthogonalLoop=1;jettySize=auto;html=1;exitX=1;exitY=0.25;exitDx=0;exitDy=0;entryX=-0.004;entryY=0.15;entryDx=0;entryDy=0;entryPerimeter=0;endArrow=ERmany;endFill=0;endSize=16;startArrow=ERone;startFill=0;startSize=16;" edge="1" parent="1" source="NYa0tjk2ZSPUIs098ws_-60" target="XtNnPfD-gan6cxk6HKLC-1">
          <mxGeometry relative="1" as="geometry" />
        </mxCell>
      </root>
    </mxGraphModel>
  </diagram>
  <diagram id="InkDnHp-k3zRwtGEbpQ3" name="Page-2">
    <mxGraphModel dx="1221" dy="769" grid="1" gridSize="10" guides="1" tooltips="1" connect="1" arrows="1" fold="1" page="1" pageScale="1" pageWidth="850" pageHeight="1100" math="0" shadow="0">
      <root>
        <mxCell id="0" />
        <mxCell id="1" parent="0" />
        <mxCell id="e93DvxlsQ11fqFbnSh0i-2" value="WIP list of common fields for internal use" style="text;html=1;align=center;verticalAlign=middle;resizable=0;points=[];autosize=1;strokeColor=none;fillColor=none;" parent="1" vertex="1">
          <mxGeometry x="80" y="35" width="240" height="30" as="geometry" />
        </mxCell>
      </root>
    </mxGraphModel>
  </diagram>
  <diagram id="CS4XGlMbxIypF9d7zsGg" name="Page-4">
    <mxGraphModel grid="1" page="1" gridSize="10" guides="1" tooltips="1" connect="1" arrows="1" fold="1" pageScale="1" pageWidth="850" pageHeight="1100" math="0" shadow="0">
      <root>
        <mxCell id="0" />
        <mxCell id="1" parent="0" />
        <mxCell id="WjeMhIhenSEBZYRXIZHA-1" value="&lt;div style=&quot;box-sizing:border-box;width:100%;background:#e4e4e4;padding:2px;&quot;&gt;companies&lt;/div&gt;&lt;table style=&quot;width:100%;font-size:1em;&quot; cellpadding=&quot;2&quot; cellspacing=&quot;0&quot;&gt;&lt;tbody&gt;&lt;tr&gt;&lt;td&gt;PK&lt;/td&gt;&lt;td&gt;id&lt;/td&gt;&lt;td&gt;bigint&lt;br&gt;&lt;/td&gt;&lt;td&gt;&lt;br&gt;&lt;/td&gt;&lt;/tr&gt;&lt;tr&gt;&lt;td&gt;&lt;/td&gt;&lt;td&gt;companyName&lt;br&gt;&lt;/td&gt;&lt;td&gt;varchar(100)&lt;br&gt;&lt;/td&gt;&lt;td&gt;&lt;br&gt;&lt;/td&gt;&lt;/tr&gt;&lt;tr&gt;&lt;td&gt;&lt;br&gt;&lt;/td&gt;&lt;td&gt;symbol&lt;br&gt;isListed&lt;/td&gt;&lt;td&gt;varchar(10)&lt;br&gt;boolean&lt;/td&gt;&lt;td&gt;&lt;br&gt;&lt;/td&gt;&lt;/tr&gt;&lt;/tbody&gt;&lt;/table&gt;" style="verticalAlign=top;align=left;overflow=fill;html=1;whiteSpace=wrap;" vertex="1" parent="1">
          <mxGeometry x="980" y="380" width="220" height="90" as="geometry" />
        </mxCell>
        <mxCell id="WjeMhIhenSEBZYRXIZHA-2" style="edgeStyle=orthogonalEdgeStyle;rounded=0;orthogonalLoop=1;jettySize=auto;html=1;endSize=16;startSize=16;endArrow=ERmany;endFill=0;startArrow=ERone;startFill=0;exitX=-0.002;exitY=0.112;exitDx=0;exitDy=0;exitPerimeter=0;entryX=1.003;entryY=0.139;entryDx=0;entryDy=0;entryPerimeter=0;" edge="1" parent="1" source="WjeMhIhenSEBZYRXIZHA-3" target="WjeMhIhenSEBZYRXIZHA-17">
          <mxGeometry relative="1" as="geometry">
            <mxPoint x="1220" y="990" as="sourcePoint" />
            <mxPoint x="770" y="980" as="targetPoint" />
            <Array as="points" />
          </mxGeometry>
        </mxCell>
        <mxCell id="WjeMhIhenSEBZYRXIZHA-3" value="&lt;div style=&quot;box-sizing:border-box;width:100%;background:#e4e4e4;padding:2px;&quot;&gt;indexes&lt;/div&gt;&lt;table style=&quot;width:100%;font-size:1em;&quot; cellpadding=&quot;2&quot; cellspacing=&quot;0&quot;&gt;&lt;tbody&gt;&lt;tr&gt;&lt;td&gt;PK&lt;/td&gt;&lt;td&gt;id&lt;/td&gt;&lt;td&gt;bigint&lt;br&gt;&lt;/td&gt;&lt;/tr&gt;&lt;tr&gt;&lt;td&gt;&lt;br&gt;&lt;/td&gt;&lt;td&gt;indexName&lt;/td&gt;&lt;td&gt;varchar(30)&lt;br&gt;&lt;/td&gt;&lt;/tr&gt;&lt;tr&gt;&lt;td&gt;&lt;/td&gt;&lt;td&gt;symbol&lt;/td&gt;&lt;td&gt;varchar(10)&lt;br&gt;&lt;/td&gt;&lt;/tr&gt;&lt;/tbody&gt;&lt;/table&gt;" style="verticalAlign=top;align=left;overflow=fill;html=1;whiteSpace=wrap;" vertex="1" parent="1">
          <mxGeometry x="900" y="970" width="170" height="90" as="geometry" />
        </mxCell>
        <mxCell id="WjeMhIhenSEBZYRXIZHA-4" value="&lt;div style=&quot;box-sizing:border-box;width:100%;background:#e4e4e4;padding:2px;&quot;&gt;commodities&lt;/div&gt;&lt;table style=&quot;width:100%;font-size:1em;&quot; cellpadding=&quot;2&quot; cellspacing=&quot;0&quot;&gt;&lt;tbody&gt;&lt;tr&gt;&lt;td&gt;PK&lt;/td&gt;&lt;td&gt;id&lt;/td&gt;&lt;td&gt;bigint&lt;br&gt;&lt;/td&gt;&lt;/tr&gt;&lt;tr&gt;&lt;td&gt;&lt;br&gt;&lt;/td&gt;&lt;td&gt;commodityName&lt;/td&gt;&lt;td&gt;varchar(30)&lt;br&gt;&lt;/td&gt;&lt;/tr&gt;&lt;tr&gt;&lt;td&gt;&lt;/td&gt;&lt;td&gt;symbol&lt;/td&gt;&lt;td&gt;varchar(10)&lt;br&gt;&lt;/td&gt;&lt;/tr&gt;&lt;/tbody&gt;&lt;/table&gt;" style="verticalAlign=top;align=left;overflow=fill;html=1;whiteSpace=wrap;" vertex="1" parent="1">
          <mxGeometry x="890" y="1090" width="205" height="90" as="geometry" />
        </mxCell>
        <mxCell id="WjeMhIhenSEBZYRXIZHA-5" value="&lt;div style=&quot;box-sizing:border-box;width:100%;background:#e4e4e4;padding:2px;&quot;&gt;historical_stock_values&lt;/div&gt;&lt;table style=&quot;width:100%;font-size:1em;&quot; cellpadding=&quot;2&quot; cellspacing=&quot;0&quot;&gt;&lt;tbody&gt;&lt;tr&gt;&lt;td&gt;PK, FK&lt;br&gt;&lt;/td&gt;&lt;td&gt;company_id&lt;/td&gt;&lt;td&gt;bigint&lt;br&gt;&lt;/td&gt;&lt;/tr&gt;&lt;tr&gt;&lt;td&gt;PK&lt;/td&gt;&lt;td&gt;date&lt;br&gt;&lt;/td&gt;&lt;td&gt;datetime&lt;br&gt;&lt;/td&gt;&lt;/tr&gt;&lt;tr&gt;&lt;td&gt;&lt;/td&gt;&lt;td&gt;open&lt;br&gt;&lt;/td&gt;&lt;td&gt;decimal&lt;br&gt;&lt;/td&gt;&lt;/tr&gt;&lt;tr&gt;&lt;td&gt;&lt;br&gt;&lt;/td&gt;&lt;td&gt;high&lt;br&gt;low&lt;/td&gt;&lt;td&gt;decimal&lt;br&gt;decimal&lt;/td&gt;&lt;/tr&gt;&lt;tr&gt;&lt;td&gt;&lt;br&gt;&lt;/td&gt;&lt;td&gt;close&lt;br&gt;adjClose&lt;br&gt;volume&lt;br&gt;unadjustedVolume&lt;br&gt;change&lt;br&gt;changePercentage&lt;br&gt;vwap&lt;br&gt;changeOverTime&lt;/td&gt;&lt;td&gt;decimal&lt;br&gt;decimal&lt;br&gt;bigint&lt;br&gt;bigint&lt;br&gt;decimal&lt;br&gt;decimal&lt;br&gt;decimal&lt;br&gt;decimal&lt;/td&gt;&lt;/tr&gt;&lt;/tbody&gt;&lt;/table&gt;" style="verticalAlign=top;align=left;overflow=fill;html=1;whiteSpace=wrap;" vertex="1" parent="1">
          <mxGeometry x="530" y="670" width="230" height="240" as="geometry" />
        </mxCell>
        <mxCell id="WjeMhIhenSEBZYRXIZHA-6" value="&lt;div style=&quot;box-sizing:border-box;width:100%;background:#e4e4e4;padding:2px;&quot;&gt;company_statements&lt;/div&gt;&lt;table style=&quot;width:100%;font-size:1em;&quot; cellpadding=&quot;2&quot; cellspacing=&quot;0&quot;&gt;&lt;tbody&gt;&lt;tr&gt;&lt;td&gt;PK, FK&lt;br&gt;&lt;/td&gt;&lt;td&gt;company_id&lt;br&gt;&lt;/td&gt;&lt;td&gt;bigint&lt;br&gt;&lt;/td&gt;&lt;/tr&gt;&lt;tr&gt;&lt;td&gt;PK&lt;br&gt;&lt;/td&gt;&lt;td&gt;date&lt;/td&gt;&lt;td&gt;datetime&lt;br&gt;&lt;/td&gt;&lt;/tr&gt;&lt;tr&gt;&lt;td&gt;&lt;/td&gt;&lt;td&gt;price&lt;/td&gt;&lt;td&gt;decimal&lt;/td&gt;&lt;/tr&gt;&lt;tr&gt;&lt;td&gt;&lt;/td&gt;&lt;td&gt;beta&lt;br&gt;volAvg&lt;br&gt;mktCap&lt;br&gt;lastDiv&lt;br&gt;changes&lt;br&gt;currency&lt;br&gt;cik&lt;br&gt;isin&lt;br&gt;cusip&lt;br&gt;exchangeFullName&lt;br&gt;exchange&lt;br&gt;industry&lt;br&gt;ceo&lt;br&gt;sector&lt;br&gt;country&lt;br&gt;fullTimeEmployees&lt;br&gt;phone&lt;br&gt;address&lt;br&gt;city&lt;br&gt;state&lt;br&gt;zip&lt;br&gt;dcfDiff&lt;br&gt;dcf&lt;br&gt;ipoDate&lt;br&gt;isEtf&lt;br&gt;isActivelyTrading&lt;br&gt;isAdr&lt;br&gt;isFund&lt;/td&gt;&lt;td&gt;decimal&lt;br&gt;decimal&lt;br&gt;bigint&lt;br&gt;decimal&lt;br&gt;decimal&lt;br&gt;varchar(3)&lt;br&gt;varchar(16)&lt;br&gt;varchar(16)&lt;br&gt;varchar(16)&lt;br&gt;varchar(100)&lt;br&gt;varchar(20)&lt;br&gt;varchar(100)&lt;br&gt;varchar(200)&lt;br&gt;varchar(100)&lt;br&gt;varchar(100)&lt;br&gt;bigint&lt;br&gt;varchar(16)&lt;br&gt;varchar(200)&lt;br&gt;varchar(200)&lt;br&gt;varchar(100)&lt;br&gt;varchar(16)&lt;br&gt;decimal&lt;br&gt;decimal&lt;br&gt;datetime&lt;br&gt;boolean&lt;br&gt;boolean&lt;br&gt;boolean&lt;br&gt;boolean&lt;/td&gt;&lt;/tr&gt;&lt;/tbody&gt;&lt;/table&gt;" style="verticalAlign=top;align=left;overflow=fill;html=1;whiteSpace=wrap;" vertex="1" parent="1">
          <mxGeometry x="1300" y="480" width="270" height="490" as="geometry" />
        </mxCell>
        <mxCell id="WjeMhIhenSEBZYRXIZHA-7" value="&lt;div style=&quot;box-sizing:border-box;width:100%;background:#e4e4e4;padding:2px;&quot;&gt;realtime_stock_values&lt;/div&gt;&lt;table style=&quot;width:100%;font-size:1em;&quot; cellpadding=&quot;2&quot; cellspacing=&quot;0&quot;&gt;&lt;tbody&gt;&lt;tr&gt;&lt;td&gt;PK, FK&lt;br&gt;&lt;/td&gt;&lt;td&gt;company_id&lt;/td&gt;&lt;td&gt;bigint&lt;br&gt;&lt;/td&gt;&lt;/tr&gt;&lt;tr&gt;&lt;td&gt;PK&lt;/td&gt;&lt;td&gt;date&lt;/td&gt;&lt;td&gt;datetime&lt;br&gt;&lt;/td&gt;&lt;/tr&gt;&lt;tr&gt;&lt;td&gt;&lt;/td&gt;&lt;td&gt;price&lt;br&gt;&lt;/td&gt;&lt;td&gt;decimal&lt;br&gt;&lt;/td&gt;&lt;/tr&gt;&lt;tr&gt;&lt;td&gt;&lt;br&gt;&lt;/td&gt;&lt;td&gt;changePercentage&lt;br&gt;&lt;/td&gt;&lt;td&gt;decimal&lt;br&gt;&lt;/td&gt;&lt;/tr&gt;&lt;tr&gt;&lt;td&gt;&lt;br&gt;&lt;/td&gt;&lt;td&gt;change&lt;br&gt;&lt;/td&gt;&lt;td&gt;decimal&lt;br&gt;&lt;/td&gt;&lt;/tr&gt;&lt;tr&gt;&lt;td&gt;&lt;br&gt;&lt;/td&gt;&lt;td&gt;dayHigh&lt;br&gt;&lt;/td&gt;&lt;td&gt;decimal&lt;br&gt;&lt;/td&gt;&lt;/tr&gt;&lt;tr&gt;&lt;td&gt;&lt;br&gt;&lt;/td&gt;&lt;td&gt;dayLow&lt;br&gt;&lt;/td&gt;&lt;td&gt;decimal&lt;br&gt;&lt;/td&gt;&lt;/tr&gt;&lt;tr&gt;&lt;td&gt;&lt;br&gt;&lt;/td&gt;&lt;td&gt;yearHigh&lt;br&gt;&lt;/td&gt;&lt;td&gt;decimal&lt;br&gt;&lt;/td&gt;&lt;/tr&gt;&lt;tr&gt;&lt;td&gt;&lt;br&gt;&lt;/td&gt;&lt;td&gt;yearLow&lt;br&gt;&lt;/td&gt;&lt;td&gt;decimal&lt;br&gt;&lt;/td&gt;&lt;/tr&gt;&lt;tr&gt;&lt;td&gt;&lt;br&gt;&lt;br&gt;&lt;/td&gt;&lt;td&gt;mktCap&lt;br&gt;exchange&lt;/td&gt;&lt;td&gt;bigint&lt;br&gt;varchar(20)&lt;/td&gt;&lt;/tr&gt;&lt;tr&gt;&lt;td&gt;&lt;br&gt;&lt;/td&gt;&lt;td&gt;open&lt;br&gt;&lt;/td&gt;&lt;td&gt;decimal&lt;br&gt;&lt;/td&gt;&lt;/tr&gt;&lt;tr&gt;&lt;td&gt;&lt;br&gt;&lt;/td&gt;&lt;td&gt;prevClose&lt;br&gt;volume&lt;/td&gt;&lt;td&gt;decimal&lt;br&gt;decimal&lt;/td&gt;&lt;/tr&gt;&lt;tr&gt;&lt;td&gt;&lt;br&gt;&lt;/td&gt;&lt;td&gt;volAvg&lt;br&gt;&lt;/td&gt;&lt;td&gt;decimal&lt;br&gt;&lt;/td&gt;&lt;/tr&gt;&lt;tr&gt;&lt;td&gt;&lt;br&gt;&lt;/td&gt;&lt;td&gt;eps&lt;br&gt;&lt;/td&gt;&lt;td&gt;decimal&lt;br&gt;&lt;/td&gt;&lt;/tr&gt;&lt;tr&gt;&lt;td&gt;&lt;br&gt;&lt;/td&gt;&lt;td&gt;pe&lt;br&gt;earningsAnnouncement&lt;br&gt;sharesOutstanding&lt;/td&gt;&lt;td&gt;decimal&lt;br&gt;datetime&lt;br&gt;bigInt&lt;/td&gt;&lt;/tr&gt;&lt;/tbody&gt;&lt;/table&gt;" style="verticalAlign=top;align=left;overflow=fill;html=1;whiteSpace=wrap;" vertex="1" parent="1">
          <mxGeometry x="500" y="250" width="260" height="380" as="geometry" />
        </mxCell>
        <mxCell id="WjeMhIhenSEBZYRXIZHA-8" style="edgeStyle=orthogonalEdgeStyle;rounded=0;orthogonalLoop=1;jettySize=auto;html=1;entryX=1.001;entryY=0.084;entryDx=0;entryDy=0;entryPerimeter=0;endArrow=ERmany;endFill=0;startArrow=ERone;startFill=0;endSize=16;startSize=16;" edge="1" parent="1" target="WjeMhIhenSEBZYRXIZHA-7">
          <mxGeometry relative="1" as="geometry">
            <mxPoint x="980" y="410" as="sourcePoint" />
            <mxPoint x="860" y="239.99999999999994" as="targetPoint" />
          </mxGeometry>
        </mxCell>
        <mxCell id="WjeMhIhenSEBZYRXIZHA-9" value="&lt;div style=&quot;box-sizing:border-box;width:100%;background:#e4e4e4;padding:2px;&quot;&gt;bonds&lt;/div&gt;&lt;table style=&quot;width:100%;font-size:1em;&quot; cellpadding=&quot;2&quot; cellspacing=&quot;0&quot;&gt;&lt;tbody&gt;&lt;tr&gt;&lt;td&gt;PK&lt;/td&gt;&lt;td&gt;bond_id&lt;/td&gt;&lt;td&gt;bigint&lt;br&gt;&lt;/td&gt;&lt;/tr&gt;&lt;tr&gt;&lt;td&gt;&lt;br&gt;&lt;/td&gt;&lt;td&gt;treasuryName&lt;/td&gt;&lt;td&gt;varchar(30)&lt;br&gt;&lt;/td&gt;&lt;/tr&gt;&lt;tr&gt;&lt;td&gt;&lt;/td&gt;&lt;td&gt;duration&lt;br&gt;&lt;/td&gt;&lt;td&gt;varchar(10)&lt;br&gt;&lt;/td&gt;&lt;/tr&gt;&lt;tr&gt;&lt;td&gt;&lt;br&gt;&lt;/td&gt;&lt;td&gt;currency&lt;br&gt;&lt;/td&gt;&lt;td&gt;varchar(8)&lt;br&gt;&lt;/td&gt;&lt;/tr&gt;&lt;/tbody&gt;&lt;/table&gt;" style="verticalAlign=top;align=left;overflow=fill;html=1;whiteSpace=wrap;" vertex="1" parent="1">
          <mxGeometry x="1040" y="560" width="217.5" height="100" as="geometry" />
        </mxCell>
        <mxCell id="WjeMhIhenSEBZYRXIZHA-10" style="edgeStyle=orthogonalEdgeStyle;rounded=0;orthogonalLoop=1;jettySize=auto;html=1;startSize=16;endSize=16;endArrow=ERmany;endFill=0;startArrow=ERone;startFill=0;" edge="1" parent="1">
          <mxGeometry relative="1" as="geometry">
            <mxPoint x="980" y="410" as="sourcePoint" />
            <mxPoint x="760" y="690" as="targetPoint" />
            <Array as="points">
              <mxPoint x="885" y="410" />
              <mxPoint x="885" y="690" />
            </Array>
          </mxGeometry>
        </mxCell>
        <mxCell id="WjeMhIhenSEBZYRXIZHA-11" value="&lt;div style=&quot;box-sizing:border-box;width:100%;background:#e4e4e4;padding:2px;&quot;&gt;bond_values&lt;/div&gt;&lt;table style=&quot;width:100%;font-size:1em;&quot; cellpadding=&quot;2&quot; cellspacing=&quot;0&quot;&gt;&lt;tbody&gt;&lt;tr&gt;&lt;td&gt;PK, FK&lt;br&gt;&lt;/td&gt;&lt;td&gt;bond_id&lt;br&gt;&lt;/td&gt;&lt;td&gt;bigint&lt;br&gt;&lt;/td&gt;&lt;/tr&gt;&lt;tr&gt;&lt;td&gt;PK&lt;br&gt;&lt;/td&gt;&lt;td&gt;date&lt;/td&gt;&lt;td&gt;datetime&lt;br&gt;&lt;/td&gt;&lt;/tr&gt;&lt;tr&gt;&lt;td&gt;&lt;/td&gt;&lt;td&gt;rate&lt;br&gt;&lt;/td&gt;&lt;td&gt;decimal&lt;br&gt;&lt;/td&gt;&lt;/tr&gt;&lt;/tbody&gt;&lt;/table&gt;" style="verticalAlign=top;align=left;overflow=fill;html=1;whiteSpace=wrap;" vertex="1" parent="1">
          <mxGeometry x="790" y="810" width="180" height="80" as="geometry" />
        </mxCell>
        <mxCell id="WjeMhIhenSEBZYRXIZHA-12" style="edgeStyle=orthogonalEdgeStyle;rounded=0;orthogonalLoop=1;jettySize=auto;html=1;exitX=1;exitY=0.25;exitDx=0;exitDy=0;endArrow=ERmany;endFill=0;startSize=16;endSize=16;startArrow=ERone;startFill=0;entryX=-0.003;entryY=0.114;entryDx=0;entryDy=0;entryPerimeter=0;" edge="1" parent="1" source="WjeMhIhenSEBZYRXIZHA-4" target="WjeMhIhenSEBZYRXIZHA-22">
          <mxGeometry relative="1" as="geometry">
            <Array as="points" />
            <mxPoint x="1245" y="1210" as="targetPoint" />
          </mxGeometry>
        </mxCell>
        <mxCell id="WjeMhIhenSEBZYRXIZHA-13" style="edgeStyle=orthogonalEdgeStyle;rounded=0;orthogonalLoop=1;jettySize=auto;html=1;exitX=0;exitY=0.25;exitDx=0;exitDy=0;entryX=1.017;entryY=0.35;entryDx=0;entryDy=0;entryPerimeter=0;endSize=16;startSize=16;startArrow=ERone;startFill=0;endArrow=ERmany;endFill=0;" edge="1" parent="1" source="WjeMhIhenSEBZYRXIZHA-9" target="WjeMhIhenSEBZYRXIZHA-11">
          <mxGeometry relative="1" as="geometry">
            <Array as="points">
              <mxPoint x="1000" y="585" />
              <mxPoint x="1000" y="838" />
            </Array>
          </mxGeometry>
        </mxCell>
        <mxCell id="WjeMhIhenSEBZYRXIZHA-14" value="&lt;div style=&quot;box-sizing:border-box;width:100%;background:#e4e4e4;padding:2px;&quot;&gt;company_changelogs&lt;/div&gt;&lt;table style=&quot;width:100%;font-size:1em;&quot; cellpadding=&quot;2&quot; cellspacing=&quot;0&quot;&gt;&lt;tbody&gt;&lt;tr&gt;&lt;td&gt;PK, FK&lt;br&gt;&lt;/td&gt;&lt;td&gt;company_id&lt;br&gt;&lt;/td&gt;&lt;td&gt;bigint&lt;br&gt;&lt;/td&gt;&lt;/tr&gt;&lt;tr&gt;&lt;td&gt;PK&lt;br&gt;&lt;/td&gt;&lt;td&gt;date&lt;/td&gt;&lt;td&gt;datetime&lt;br&gt;&lt;/td&gt;&lt;/tr&gt;&lt;tr&gt;&lt;td&gt;&lt;/td&gt;&lt;td&gt;companyName&lt;br&gt;&lt;/td&gt;&lt;td&gt;varchar(100)&lt;br&gt;&lt;/td&gt;&lt;/tr&gt;&lt;tr&gt;&lt;td&gt;&lt;br&gt;&lt;/td&gt;&lt;td&gt;newCompanyName&lt;br&gt;&lt;/td&gt;&lt;td&gt;varchar(100)&lt;br&gt;&lt;/td&gt;&lt;/tr&gt;&lt;tr&gt;&lt;td&gt;&lt;br&gt;&lt;/td&gt;&lt;td&gt;nameChanged&lt;br&gt;&lt;/td&gt;&lt;td&gt;boolean&lt;br&gt;&lt;/td&gt;&lt;/tr&gt;&lt;tr&gt;&lt;td&gt;&lt;br&gt;&lt;/td&gt;&lt;td&gt;symbol&lt;br&gt;&lt;/td&gt;&lt;td&gt;varchar(10)&lt;br&gt;&lt;/td&gt;&lt;/tr&gt;&lt;tr&gt;&lt;td&gt;&lt;br&gt;&lt;/td&gt;&lt;td&gt;newSymbol&lt;br&gt;&lt;/td&gt;&lt;td&gt;varchar(10)&lt;br&gt;&lt;/td&gt;&lt;/tr&gt;&lt;tr&gt;&lt;td&gt;&lt;br&gt;&lt;/td&gt;&lt;td&gt;symbolChanged&lt;br&gt;&lt;/td&gt;&lt;td&gt;boolean&lt;br&gt;&lt;/td&gt;&lt;/tr&gt;&lt;/tbody&gt;&lt;/table&gt;" style="verticalAlign=top;align=left;overflow=fill;html=1;whiteSpace=wrap;" vertex="1" parent="1">
          <mxGeometry x="1300" y="260" width="270" height="184" as="geometry" />
        </mxCell>
        <mxCell id="WjeMhIhenSEBZYRXIZHA-15" style="edgeStyle=orthogonalEdgeStyle;rounded=0;orthogonalLoop=1;jettySize=auto;html=1;exitX=0.997;exitY=0.222;exitDx=0;exitDy=0;entryX=0;entryY=0.157;entryDx=0;entryDy=0;entryPerimeter=0;endArrow=ERmany;endFill=0;endSize=16;startArrow=ERone;startFill=0;startSize=16;exitPerimeter=0;" edge="1" parent="1" source="WjeMhIhenSEBZYRXIZHA-1" target="WjeMhIhenSEBZYRXIZHA-14">
          <mxGeometry relative="1" as="geometry">
            <Array as="points">
              <mxPoint x="1240" y="400" />
              <mxPoint x="1240" y="289" />
            </Array>
          </mxGeometry>
        </mxCell>
        <mxCell id="WjeMhIhenSEBZYRXIZHA-16" value="&lt;div style=&quot;box-sizing:border-box;width:100%;background:#e4e4e4;padding:2px;&quot;&gt;historical_index_values&lt;/div&gt;&lt;table style=&quot;width:100%;font-size:1em;&quot; cellpadding=&quot;2&quot; cellspacing=&quot;0&quot;&gt;&lt;tbody&gt;&lt;tr&gt;&lt;td&gt;PK, FK&lt;br&gt;&lt;/td&gt;&lt;td&gt;index_id&lt;/td&gt;&lt;td&gt;bigint&lt;br&gt;&lt;/td&gt;&lt;/tr&gt;&lt;tr&gt;&lt;td&gt;PK&lt;/td&gt;&lt;td&gt;date&lt;br&gt;&lt;/td&gt;&lt;td&gt;datetime&lt;br&gt;&lt;/td&gt;&lt;/tr&gt;&lt;tr&gt;&lt;td&gt;&lt;/td&gt;&lt;td&gt;open&lt;br&gt;&lt;/td&gt;&lt;td&gt;decimal&lt;br&gt;&lt;/td&gt;&lt;/tr&gt;&lt;tr&gt;&lt;td&gt;&lt;br&gt;&lt;/td&gt;&lt;td&gt;high&lt;br&gt;low&lt;/td&gt;&lt;td&gt;decimal&lt;br&gt;decimal&lt;/td&gt;&lt;/tr&gt;&lt;tr&gt;&lt;td&gt;&lt;br&gt;&lt;/td&gt;&lt;td&gt;close&lt;br&gt;adjClose&lt;br&gt;volume&lt;br&gt;unadjustedVolume&lt;br&gt;change&lt;br&gt;changePercentage&lt;br&gt;vwap&lt;br&gt;changeOverTime&lt;/td&gt;&lt;td&gt;decimal&lt;br&gt;decimal&lt;br&gt;bigint&lt;br&gt;bigint&lt;br&gt;decimal&lt;br&gt;decimal&lt;br&gt;decimal&lt;br&gt;decimal&lt;/td&gt;&lt;/tr&gt;&lt;/tbody&gt;&lt;/table&gt;" style="verticalAlign=top;align=left;overflow=fill;html=1;whiteSpace=wrap;" vertex="1" parent="1">
          <mxGeometry x="530" y="1260" width="230" height="240" as="geometry" />
        </mxCell>
        <mxCell id="WjeMhIhenSEBZYRXIZHA-17" value="&lt;div style=&quot;box-sizing:border-box;width:100%;background:#e4e4e4;padding:2px;&quot;&gt;realtime_index_values&lt;/div&gt;&lt;table style=&quot;width:100%;font-size:1em;&quot; cellpadding=&quot;2&quot; cellspacing=&quot;0&quot;&gt;&lt;tbody&gt;&lt;tr&gt;&lt;td&gt;PK, FK&lt;br&gt;&lt;/td&gt;&lt;td&gt;index_id&lt;/td&gt;&lt;td&gt;bigint&lt;br&gt;&lt;/td&gt;&lt;/tr&gt;&lt;tr&gt;&lt;td&gt;PK&lt;/td&gt;&lt;td&gt;date&lt;/td&gt;&lt;td&gt;datetime&lt;br&gt;&lt;/td&gt;&lt;/tr&gt;&lt;tr&gt;&lt;td&gt;&lt;/td&gt;&lt;td&gt;price&lt;br&gt;&lt;/td&gt;&lt;td&gt;decimal&lt;br&gt;&lt;/td&gt;&lt;/tr&gt;&lt;tr&gt;&lt;td&gt;&lt;br&gt;&lt;/td&gt;&lt;td&gt;changePercentage&lt;br&gt;&lt;/td&gt;&lt;td&gt;decimal&lt;br&gt;&lt;/td&gt;&lt;/tr&gt;&lt;tr&gt;&lt;td&gt;&lt;br&gt;&lt;/td&gt;&lt;td&gt;change&lt;br&gt;&lt;/td&gt;&lt;td&gt;decimal&lt;br&gt;&lt;/td&gt;&lt;/tr&gt;&lt;tr&gt;&lt;td&gt;&lt;br&gt;&lt;/td&gt;&lt;td&gt;dayHigh&lt;br&gt;&lt;/td&gt;&lt;td&gt;decimal&lt;br&gt;&lt;/td&gt;&lt;/tr&gt;&lt;tr&gt;&lt;td&gt;&lt;br&gt;&lt;/td&gt;&lt;td&gt;dayLow&lt;br&gt;&lt;/td&gt;&lt;td&gt;decimal&lt;br&gt;&lt;/td&gt;&lt;/tr&gt;&lt;tr&gt;&lt;td&gt;&lt;br&gt;&lt;/td&gt;&lt;td&gt;yearHigh&lt;br&gt;&lt;/td&gt;&lt;td&gt;decimal&lt;br&gt;&lt;/td&gt;&lt;/tr&gt;&lt;tr&gt;&lt;td&gt;&lt;br&gt;&lt;/td&gt;&lt;td&gt;yearLow&lt;br&gt;&lt;/td&gt;&lt;td&gt;decimal&lt;br&gt;&lt;/td&gt;&lt;/tr&gt;&lt;tr&gt;&lt;td&gt;&lt;br&gt;&lt;br&gt;&lt;/td&gt;&lt;td&gt;mktCap&lt;br&gt;exchange&lt;/td&gt;&lt;td&gt;bigint&lt;br&gt;varchar(20)&lt;/td&gt;&lt;/tr&gt;&lt;tr&gt;&lt;td&gt;&lt;br&gt;&lt;/td&gt;&lt;td&gt;open&lt;br&gt;&lt;/td&gt;&lt;td&gt;decimal&lt;br&gt;&lt;/td&gt;&lt;/tr&gt;&lt;tr&gt;&lt;td&gt;&lt;br&gt;&lt;/td&gt;&lt;td&gt;prevClose&lt;br&gt;volume&lt;/td&gt;&lt;td&gt;decimal&lt;br&gt;decimal&lt;/td&gt;&lt;/tr&gt;&lt;tr&gt;&lt;td&gt;&lt;br&gt;&lt;/td&gt;&lt;td&gt;volAvg&lt;br&gt;&lt;/td&gt;&lt;td&gt;decimal&lt;br&gt;&lt;/td&gt;&lt;/tr&gt;&lt;tr&gt;&lt;td&gt;&lt;/td&gt;&lt;td&gt;&lt;/td&gt;&lt;td&gt;&lt;br&gt;&lt;/td&gt;&lt;/tr&gt;&lt;tr&gt;&lt;td&gt;&lt;/td&gt;&lt;td&gt;&lt;/td&gt;&lt;td&gt;&lt;br&gt;&lt;br&gt;&lt;/td&gt;&lt;/tr&gt;&lt;/tbody&gt;&lt;/table&gt;" style="verticalAlign=top;align=left;overflow=fill;html=1;whiteSpace=wrap;" vertex="1" parent="1">
          <mxGeometry x="500" y="940" width="260" height="290" as="geometry" />
        </mxCell>
        <mxCell id="WjeMhIhenSEBZYRXIZHA-18" style="edgeStyle=orthogonalEdgeStyle;rounded=0;orthogonalLoop=1;jettySize=auto;html=1;exitX=0.5;exitY=1;exitDx=0;exitDy=0;" edge="1" parent="1" source="WjeMhIhenSEBZYRXIZHA-7" target="WjeMhIhenSEBZYRXIZHA-7">
          <mxGeometry relative="1" as="geometry" />
        </mxCell>
        <mxCell id="WjeMhIhenSEBZYRXIZHA-20" style="edgeStyle=orthogonalEdgeStyle;rounded=0;orthogonalLoop=1;jettySize=auto;html=1;endSize=16;startSize=16;endArrow=ERmany;endFill=0;startArrow=ERone;startFill=0;" edge="1" parent="1">
          <mxGeometry relative="1" as="geometry">
            <mxPoint x="890" y="980" as="sourcePoint" />
            <mxPoint x="745" y="1291" as="targetPoint" />
            <Array as="points">
              <mxPoint x="890" y="980" />
              <mxPoint x="820" y="980" />
              <mxPoint x="820" y="1291" />
            </Array>
          </mxGeometry>
        </mxCell>
        <mxCell id="WjeMhIhenSEBZYRXIZHA-21" value="&lt;div style=&quot;box-sizing:border-box;width:100%;background:#e4e4e4;padding:2px;&quot;&gt;historical_commodity_values&lt;/div&gt;&lt;table style=&quot;width:100%;font-size:1em;&quot; cellpadding=&quot;2&quot; cellspacing=&quot;0&quot;&gt;&lt;tbody&gt;&lt;tr&gt;&lt;td&gt;PK, FK&lt;br&gt;&lt;/td&gt;&lt;td&gt;commodity_id&lt;/td&gt;&lt;td&gt;bigint&lt;br&gt;&lt;/td&gt;&lt;/tr&gt;&lt;tr&gt;&lt;td&gt;PK&lt;/td&gt;&lt;td&gt;date&lt;br&gt;&lt;/td&gt;&lt;td&gt;datetime&lt;br&gt;&lt;/td&gt;&lt;/tr&gt;&lt;tr&gt;&lt;td&gt;&lt;/td&gt;&lt;td&gt;open&lt;br&gt;&lt;/td&gt;&lt;td&gt;decimal&lt;br&gt;&lt;/td&gt;&lt;/tr&gt;&lt;tr&gt;&lt;td&gt;&lt;br&gt;&lt;/td&gt;&lt;td&gt;high&lt;br&gt;low&lt;/td&gt;&lt;td&gt;decimal&lt;br&gt;decimal&lt;/td&gt;&lt;/tr&gt;&lt;tr&gt;&lt;td&gt;&lt;br&gt;&lt;/td&gt;&lt;td&gt;close&lt;br&gt;adjClose&lt;br&gt;volume&lt;br&gt;unadjustedVolume&lt;br&gt;change&lt;br&gt;changePercentage&lt;br&gt;vwap&lt;br&gt;changeOverTime&lt;/td&gt;&lt;td&gt;decimal&lt;br&gt;decimal&lt;br&gt;bigint&lt;br&gt;bigint&lt;br&gt;decimal&lt;br&gt;decimal&lt;br&gt;decimal&lt;br&gt;decimal&lt;/td&gt;&lt;/tr&gt;&lt;/tbody&gt;&lt;/table&gt;" style="verticalAlign=top;align=left;overflow=fill;html=1;whiteSpace=wrap;" vertex="1" parent="1">
          <mxGeometry x="1340" y="1390" width="230" height="240" as="geometry" />
        </mxCell>
        <mxCell id="WjeMhIhenSEBZYRXIZHA-22" value="&lt;div style=&quot;box-sizing:border-box;width:100%;background:#e4e4e4;padding:2px;&quot;&gt;realtime_commodity_values&lt;/div&gt;&lt;table style=&quot;width:100%;font-size:1em;&quot; cellpadding=&quot;2&quot; cellspacing=&quot;0&quot;&gt;&lt;tbody&gt;&lt;tr&gt;&lt;td&gt;PK, FK&lt;br&gt;&lt;/td&gt;&lt;td&gt;commodity_id&lt;/td&gt;&lt;td&gt;bigint&lt;br&gt;&lt;/td&gt;&lt;/tr&gt;&lt;tr&gt;&lt;td&gt;PK&lt;/td&gt;&lt;td&gt;date&lt;/td&gt;&lt;td&gt;datetime&lt;br&gt;&lt;/td&gt;&lt;/tr&gt;&lt;tr&gt;&lt;td&gt;&lt;/td&gt;&lt;td&gt;price&lt;br&gt;&lt;/td&gt;&lt;td&gt;decimal&lt;br&gt;&lt;/td&gt;&lt;/tr&gt;&lt;tr&gt;&lt;td&gt;&lt;br&gt;&lt;/td&gt;&lt;td&gt;changePercentage&lt;br&gt;&lt;/td&gt;&lt;td&gt;decimal&lt;br&gt;&lt;/td&gt;&lt;/tr&gt;&lt;tr&gt;&lt;td&gt;&lt;br&gt;&lt;/td&gt;&lt;td&gt;change&lt;br&gt;&lt;/td&gt;&lt;td&gt;decimal&lt;br&gt;&lt;/td&gt;&lt;/tr&gt;&lt;tr&gt;&lt;td&gt;&lt;br&gt;&lt;/td&gt;&lt;td&gt;dayHigh&lt;br&gt;&lt;/td&gt;&lt;td&gt;decimal&lt;br&gt;&lt;/td&gt;&lt;/tr&gt;&lt;tr&gt;&lt;td&gt;&lt;br&gt;&lt;/td&gt;&lt;td&gt;dayLow&lt;br&gt;&lt;/td&gt;&lt;td&gt;decimal&lt;br&gt;&lt;/td&gt;&lt;/tr&gt;&lt;tr&gt;&lt;td&gt;&lt;br&gt;&lt;/td&gt;&lt;td&gt;yearHigh&lt;br&gt;&lt;/td&gt;&lt;td&gt;decimal&lt;br&gt;&lt;/td&gt;&lt;/tr&gt;&lt;tr&gt;&lt;td&gt;&lt;br&gt;&lt;/td&gt;&lt;td&gt;yearLow&lt;br&gt;&lt;/td&gt;&lt;td&gt;decimal&lt;br&gt;&lt;/td&gt;&lt;/tr&gt;&lt;tr&gt;&lt;td&gt;&lt;br&gt;&lt;br&gt;&lt;/td&gt;&lt;td&gt;mktCap&lt;br&gt;exchange&lt;/td&gt;&lt;td&gt;bigint&lt;br&gt;varchar(20)&lt;/td&gt;&lt;/tr&gt;&lt;tr&gt;&lt;td&gt;&lt;br&gt;&lt;/td&gt;&lt;td&gt;open&lt;br&gt;&lt;/td&gt;&lt;td&gt;decimal&lt;br&gt;&lt;/td&gt;&lt;/tr&gt;&lt;tr&gt;&lt;td&gt;&lt;br&gt;&lt;/td&gt;&lt;td&gt;prevClose&lt;br&gt;volume&lt;/td&gt;&lt;td&gt;decimal&lt;br&gt;decimal&lt;/td&gt;&lt;/tr&gt;&lt;tr&gt;&lt;td&gt;&lt;br&gt;&lt;/td&gt;&lt;td&gt;volAvg&lt;br&gt;&lt;/td&gt;&lt;td&gt;decimal&lt;br&gt;&lt;/td&gt;&lt;/tr&gt;&lt;tr&gt;&lt;td&gt;&lt;/td&gt;&lt;td&gt;&lt;/td&gt;&lt;td&gt;&lt;br&gt;&lt;/td&gt;&lt;/tr&gt;&lt;tr&gt;&lt;td&gt;&lt;/td&gt;&lt;td&gt;&lt;/td&gt;&lt;td&gt;&lt;br&gt;&lt;br&gt;&lt;/td&gt;&lt;/tr&gt;&lt;/tbody&gt;&lt;/table&gt;" style="verticalAlign=top;align=left;overflow=fill;html=1;whiteSpace=wrap;" vertex="1" parent="1">
          <mxGeometry x="1310" y="1080" width="260" height="290" as="geometry" />
        </mxCell>
        <mxCell id="WjeMhIhenSEBZYRXIZHA-23" style="edgeStyle=orthogonalEdgeStyle;rounded=0;orthogonalLoop=1;jettySize=auto;html=1;endSize=16;startSize=16;endArrow=ERmany;endFill=0;startArrow=ERone;startFill=0;exitX=1;exitY=0.25;exitDx=0;exitDy=0;entryX=0.01;entryY=0.087;entryDx=0;entryDy=0;entryPerimeter=0;" edge="1" parent="1" source="WjeMhIhenSEBZYRXIZHA-4" target="WjeMhIhenSEBZYRXIZHA-21">
          <mxGeometry relative="1" as="geometry">
            <mxPoint x="1270" y="1171" as="sourcePoint" />
            <mxPoint x="1375" y="1410" as="targetPoint" />
            <Array as="points">
              <mxPoint x="1205" y="1112" />
              <mxPoint x="1205" y="1410" />
              <mxPoint x="1305" y="1410" />
            </Array>
          </mxGeometry>
        </mxCell>
        <mxCell id="WjeMhIhenSEBZYRXIZHA-24" style="edgeStyle=orthogonalEdgeStyle;rounded=0;orthogonalLoop=1;jettySize=auto;html=1;exitX=1;exitY=0.25;exitDx=0;exitDy=0;entryX=0;entryY=0.084;entryDx=0;entryDy=0;entryPerimeter=0;endArrow=ERmany;endFill=0;" edge="1" parent="1" source="WjeMhIhenSEBZYRXIZHA-1" target="WjeMhIhenSEBZYRXIZHA-6">
          <mxGeometry relative="1" as="geometry">
            <Array as="points">
              <mxPoint x="1200" y="400" />
              <mxPoint x="1240" y="400" />
              <mxPoint x="1240" y="515" />
            </Array>
          </mxGeometry>
        </mxCell>
      </root>
    </mxGraphModel>
  </diagram>
  <diagram id="vb-HE4aIZ9hDaS5D3ufH" name="Page-6">
    <mxGraphModel grid="1" page="1" gridSize="10" guides="1" tooltips="1" connect="1" arrows="1" fold="1" pageScale="1" pageWidth="850" pageHeight="1100" math="0" shadow="0">
      <root>
        <mxCell id="0" />
        <mxCell id="1" parent="0" />
        <mxCell id="pSwf7CjrwYMgXPYzzPIF-1" value="&lt;div style=&quot;box-sizing:border-box;width:100%;background:#e4e4e4;padding:2px;&quot;&gt;companies&lt;/div&gt;&lt;table style=&quot;width:100%;font-size:1em;&quot; cellpadding=&quot;2&quot; cellspacing=&quot;0&quot;&gt;&lt;tbody&gt;&lt;tr&gt;&lt;td&gt;PK&lt;/td&gt;&lt;td&gt;id&lt;/td&gt;&lt;td&gt;bigint&lt;br&gt;&lt;/td&gt;&lt;td&gt;&lt;br&gt;&lt;/td&gt;&lt;/tr&gt;&lt;tr&gt;&lt;td&gt;&lt;/td&gt;&lt;td&gt;companyName&lt;br&gt;&lt;/td&gt;&lt;td&gt;varchar(100)&lt;br&gt;&lt;/td&gt;&lt;td&gt;&lt;br&gt;&lt;/td&gt;&lt;/tr&gt;&lt;tr&gt;&lt;td&gt;&lt;br&gt;&lt;/td&gt;&lt;td&gt;symbol&lt;br&gt;isListed&lt;/td&gt;&lt;td&gt;varchar(10)&lt;br&gt;boolean&lt;/td&gt;&lt;td&gt;&lt;br&gt;&lt;/td&gt;&lt;/tr&gt;&lt;/tbody&gt;&lt;/table&gt;" style="verticalAlign=top;align=left;overflow=fill;html=1;whiteSpace=wrap;" vertex="1" parent="1">
          <mxGeometry x="550" y="390" width="220" height="90" as="geometry" />
        </mxCell>
        <mxCell id="pSwf7CjrwYMgXPYzzPIF-2" style="edgeStyle=orthogonalEdgeStyle;rounded=0;orthogonalLoop=1;jettySize=auto;html=1;entryX=0;entryY=0.75;entryDx=0;entryDy=0;endArrow=ERmandOne;endFill=0;startArrow=ERzeroToMany;startFill=0;endSize=15;startSize=15;" edge="1" parent="1" source="pSwf7CjrwYMgXPYzzPIF-3" target="pSwf7CjrwYMgXPYzzPIF-1">
          <mxGeometry relative="1" as="geometry" />
        </mxCell>
        <mxCell id="pSwf7CjrwYMgXPYzzPIF-3" value="&lt;div style=&quot;box-sizing:border-box;width:100%;background:#e4e4e4;padding:2px;&quot;&gt;historical_stock_values&lt;/div&gt;&lt;table style=&quot;width:100%;font-size:1em;&quot; cellpadding=&quot;2&quot; cellspacing=&quot;0&quot;&gt;&lt;tbody&gt;&lt;tr&gt;&lt;td&gt;PK, FK&lt;br&gt;&lt;/td&gt;&lt;td&gt;company_id&lt;/td&gt;&lt;td&gt;bigint&lt;br&gt;&lt;/td&gt;&lt;/tr&gt;&lt;tr&gt;&lt;td&gt;PK&lt;/td&gt;&lt;td&gt;date&lt;br&gt;&lt;/td&gt;&lt;td&gt;datetime&lt;br&gt;&lt;/td&gt;&lt;/tr&gt;&lt;tr&gt;&lt;td&gt;&lt;/td&gt;&lt;td&gt;open&lt;br&gt;&lt;/td&gt;&lt;td&gt;decimal&lt;br&gt;&lt;/td&gt;&lt;/tr&gt;&lt;tr&gt;&lt;td&gt;&lt;br&gt;&lt;/td&gt;&lt;td&gt;high&lt;br&gt;low&lt;/td&gt;&lt;td&gt;decimal&lt;br&gt;decimal&lt;/td&gt;&lt;/tr&gt;&lt;tr&gt;&lt;td&gt;&lt;br&gt;&lt;/td&gt;&lt;td&gt;close&lt;br&gt;adjClose&lt;br&gt;volume&lt;br&gt;unadjustedVolume&lt;br&gt;change&lt;br&gt;changePercentage&lt;br&gt;vwap&lt;br&gt;changeOverTime&lt;/td&gt;&lt;td&gt;decimal&lt;br&gt;decimal&lt;br&gt;bigint&lt;br&gt;bigint&lt;br&gt;decimal&lt;br&gt;decimal&lt;br&gt;decimal&lt;br&gt;decimal&lt;/td&gt;&lt;/tr&gt;&lt;/tbody&gt;&lt;/table&gt;" style="verticalAlign=top;align=left;overflow=fill;html=1;whiteSpace=wrap;" vertex="1" parent="1">
          <mxGeometry x="190" y="510" width="230" height="240" as="geometry" />
        </mxCell>
        <mxCell id="pSwf7CjrwYMgXPYzzPIF-4" style="edgeStyle=orthogonalEdgeStyle;rounded=0;orthogonalLoop=1;jettySize=auto;html=1;entryX=1;entryY=0.75;entryDx=0;entryDy=0;endArrow=ERmandOne;endFill=0;endSize=15;startSize=15;startArrow=ERzeroToMany;startFill=0;" edge="1" parent="1" source="pSwf7CjrwYMgXPYzzPIF-5" target="pSwf7CjrwYMgXPYzzPIF-1">
          <mxGeometry relative="1" as="geometry" />
        </mxCell>
        <mxCell id="pSwf7CjrwYMgXPYzzPIF-5" value="&lt;div style=&quot;box-sizing:border-box;width:100%;background:#e4e4e4;padding:2px;&quot;&gt;company_statements&lt;/div&gt;&lt;table style=&quot;width:100%;font-size:1em;&quot; cellpadding=&quot;2&quot; cellspacing=&quot;0&quot;&gt;&lt;tbody&gt;&lt;tr&gt;&lt;td&gt;PK, FK&lt;br&gt;&lt;/td&gt;&lt;td&gt;company_id&lt;br&gt;&lt;/td&gt;&lt;td&gt;bigint&lt;br&gt;&lt;/td&gt;&lt;/tr&gt;&lt;tr&gt;&lt;td&gt;PK&lt;br&gt;&lt;/td&gt;&lt;td&gt;date&lt;/td&gt;&lt;td&gt;datetime&lt;br&gt;&lt;/td&gt;&lt;/tr&gt;&lt;tr&gt;&lt;td&gt;&lt;/td&gt;&lt;td&gt;price&lt;/td&gt;&lt;td&gt;decimal&lt;/td&gt;&lt;/tr&gt;&lt;tr&gt;&lt;td&gt;&lt;/td&gt;&lt;td&gt;beta&lt;br&gt;volAvg&lt;br&gt;mktCap&lt;br&gt;lastDiv&lt;br&gt;changes&lt;br&gt;currency&lt;br&gt;cik&lt;br&gt;isin&lt;br&gt;cusip&lt;br&gt;exchangeFullName&lt;br&gt;exchange&lt;br&gt;industry&lt;br&gt;ceo&lt;br&gt;sector&lt;br&gt;country&lt;br&gt;fullTimeEmployees&lt;br&gt;phone&lt;br&gt;address&lt;br&gt;city&lt;br&gt;state&lt;br&gt;zip&lt;br&gt;dcfDiff&lt;br&gt;dcf&lt;br&gt;ipoDate&lt;br&gt;isEtf&lt;br&gt;isActivelyTrading&lt;br&gt;isAdr&lt;br&gt;isFund&lt;/td&gt;&lt;td&gt;decimal&lt;br&gt;decimal&lt;br&gt;bigint&lt;br&gt;decimal&lt;br&gt;decimal&lt;br&gt;varchar(3)&lt;br&gt;varchar(16)&lt;br&gt;varchar(16)&lt;br&gt;varchar(16)&lt;br&gt;varchar(100)&lt;br&gt;varchar(20)&lt;br&gt;varchar(100)&lt;br&gt;varchar(200)&lt;br&gt;varchar(100)&lt;br&gt;varchar(100)&lt;br&gt;bigint&lt;br&gt;varchar(16)&lt;br&gt;varchar(200)&lt;br&gt;varchar(200)&lt;br&gt;varchar(100)&lt;br&gt;varchar(16)&lt;br&gt;decimal&lt;br&gt;decimal&lt;br&gt;datetime&lt;br&gt;boolean&lt;br&gt;boolean&lt;br&gt;boolean&lt;br&gt;boolean&lt;/td&gt;&lt;/tr&gt;&lt;/tbody&gt;&lt;/table&gt;" style="verticalAlign=top;align=left;overflow=fill;html=1;whiteSpace=wrap;" vertex="1" parent="1">
          <mxGeometry x="910" y="320" width="270" height="490" as="geometry" />
        </mxCell>
        <mxCell id="pSwf7CjrwYMgXPYzzPIF-6" style="edgeStyle=orthogonalEdgeStyle;rounded=0;orthogonalLoop=1;jettySize=auto;html=1;entryX=0;entryY=0.25;entryDx=0;entryDy=0;endArrow=ERmandOne;endFill=0;startArrow=ERzeroToMany;startFill=0;endSize=15;startSize=15;" edge="1" parent="1" source="pSwf7CjrwYMgXPYzzPIF-7" target="pSwf7CjrwYMgXPYzzPIF-1">
          <mxGeometry relative="1" as="geometry" />
        </mxCell>
        <mxCell id="pSwf7CjrwYMgXPYzzPIF-7" value="&lt;div style=&quot;box-sizing:border-box;width:100%;background:#e4e4e4;padding:2px;&quot;&gt;realtime_stock_values&lt;/div&gt;&lt;table style=&quot;width:100%;font-size:1em;&quot; cellpadding=&quot;2&quot; cellspacing=&quot;0&quot;&gt;&lt;tbody&gt;&lt;tr&gt;&lt;td&gt;PK, FK&lt;br&gt;&lt;/td&gt;&lt;td&gt;company_id&lt;/td&gt;&lt;td&gt;bigint&lt;br&gt;&lt;/td&gt;&lt;/tr&gt;&lt;tr&gt;&lt;td&gt;PK&lt;/td&gt;&lt;td&gt;date&lt;/td&gt;&lt;td&gt;datetime&lt;br&gt;&lt;/td&gt;&lt;/tr&gt;&lt;tr&gt;&lt;td&gt;&lt;/td&gt;&lt;td&gt;price&lt;br&gt;&lt;/td&gt;&lt;td&gt;decimal&lt;br&gt;&lt;/td&gt;&lt;/tr&gt;&lt;tr&gt;&lt;td&gt;&lt;br&gt;&lt;/td&gt;&lt;td&gt;changePercentage&lt;br&gt;&lt;/td&gt;&lt;td&gt;decimal&lt;br&gt;&lt;/td&gt;&lt;/tr&gt;&lt;tr&gt;&lt;td&gt;&lt;br&gt;&lt;/td&gt;&lt;td&gt;change&lt;br&gt;&lt;/td&gt;&lt;td&gt;decimal&lt;br&gt;&lt;/td&gt;&lt;/tr&gt;&lt;tr&gt;&lt;td&gt;&lt;br&gt;&lt;/td&gt;&lt;td&gt;dayHigh&lt;br&gt;&lt;/td&gt;&lt;td&gt;decimal&lt;br&gt;&lt;/td&gt;&lt;/tr&gt;&lt;tr&gt;&lt;td&gt;&lt;br&gt;&lt;/td&gt;&lt;td&gt;dayLow&lt;br&gt;&lt;/td&gt;&lt;td&gt;decimal&lt;br&gt;&lt;/td&gt;&lt;/tr&gt;&lt;tr&gt;&lt;td&gt;&lt;br&gt;&lt;/td&gt;&lt;td&gt;yearHigh&lt;br&gt;&lt;/td&gt;&lt;td&gt;decimal&lt;br&gt;&lt;/td&gt;&lt;/tr&gt;&lt;tr&gt;&lt;td&gt;&lt;br&gt;&lt;/td&gt;&lt;td&gt;yearLow&lt;br&gt;&lt;/td&gt;&lt;td&gt;decimal&lt;br&gt;&lt;/td&gt;&lt;/tr&gt;&lt;tr&gt;&lt;td&gt;&lt;br&gt;&lt;br&gt;&lt;/td&gt;&lt;td&gt;mktCap&lt;br&gt;exchange&lt;/td&gt;&lt;td&gt;bigint&lt;br&gt;varchar(20)&lt;/td&gt;&lt;/tr&gt;&lt;tr&gt;&lt;td&gt;&lt;br&gt;&lt;/td&gt;&lt;td&gt;open&lt;br&gt;&lt;/td&gt;&lt;td&gt;decimal&lt;br&gt;&lt;/td&gt;&lt;/tr&gt;&lt;tr&gt;&lt;td&gt;&lt;br&gt;&lt;/td&gt;&lt;td&gt;prevClose&lt;br&gt;volume&lt;/td&gt;&lt;td&gt;decimal&lt;br&gt;decimal&lt;/td&gt;&lt;/tr&gt;&lt;tr&gt;&lt;td&gt;&lt;br&gt;&lt;/td&gt;&lt;td&gt;volAvg&lt;br&gt;&lt;/td&gt;&lt;td&gt;decimal&lt;br&gt;&lt;/td&gt;&lt;/tr&gt;&lt;tr&gt;&lt;td&gt;&lt;br&gt;&lt;/td&gt;&lt;td&gt;eps&lt;br&gt;&lt;/td&gt;&lt;td&gt;decimal&lt;br&gt;&lt;/td&gt;&lt;/tr&gt;&lt;tr&gt;&lt;td&gt;&lt;br&gt;&lt;/td&gt;&lt;td&gt;pe&lt;br&gt;earningsAnnouncement&lt;br&gt;sharesOutstanding&lt;/td&gt;&lt;td&gt;decimal&lt;br&gt;datetime&lt;br&gt;bigInt&lt;/td&gt;&lt;/tr&gt;&lt;/tbody&gt;&lt;/table&gt;" style="verticalAlign=top;align=left;overflow=fill;html=1;whiteSpace=wrap;" vertex="1" parent="1">
          <mxGeometry x="160" y="90" width="260" height="380" as="geometry" />
        </mxCell>
        <mxCell id="pSwf7CjrwYMgXPYzzPIF-8" style="edgeStyle=orthogonalEdgeStyle;rounded=0;orthogonalLoop=1;jettySize=auto;html=1;entryX=1;entryY=0.25;entryDx=0;entryDy=0;endArrow=ERmandOne;endFill=0;endSize=15;startSize=15;startArrow=ERzeroToMany;startFill=0;" edge="1" parent="1" source="pSwf7CjrwYMgXPYzzPIF-9" target="pSwf7CjrwYMgXPYzzPIF-1">
          <mxGeometry relative="1" as="geometry" />
        </mxCell>
        <mxCell id="pSwf7CjrwYMgXPYzzPIF-9" value="&lt;div style=&quot;box-sizing:border-box;width:100%;background:#e4e4e4;padding:2px;&quot;&gt;company_changelogs&lt;/div&gt;&lt;table style=&quot;width:100%;font-size:1em;&quot; cellpadding=&quot;2&quot; cellspacing=&quot;0&quot;&gt;&lt;tbody&gt;&lt;tr&gt;&lt;td&gt;PK, FK&lt;br&gt;&lt;/td&gt;&lt;td&gt;company_id&lt;br&gt;&lt;/td&gt;&lt;td&gt;bigint&lt;br&gt;&lt;/td&gt;&lt;/tr&gt;&lt;tr&gt;&lt;td&gt;PK&lt;br&gt;&lt;/td&gt;&lt;td&gt;date&lt;/td&gt;&lt;td&gt;datetime&lt;br&gt;&lt;/td&gt;&lt;/tr&gt;&lt;tr&gt;&lt;td&gt;&lt;/td&gt;&lt;td&gt;companyName&lt;br&gt;&lt;/td&gt;&lt;td&gt;varchar(100)&lt;br&gt;&lt;/td&gt;&lt;/tr&gt;&lt;tr&gt;&lt;td&gt;&lt;br&gt;&lt;/td&gt;&lt;td&gt;newCompanyName&lt;br&gt;&lt;/td&gt;&lt;td&gt;varchar(100)&lt;br&gt;&lt;/td&gt;&lt;/tr&gt;&lt;tr&gt;&lt;td&gt;&lt;br&gt;&lt;/td&gt;&lt;td&gt;nameChanged&lt;br&gt;&lt;/td&gt;&lt;td&gt;boolean&lt;br&gt;&lt;/td&gt;&lt;/tr&gt;&lt;tr&gt;&lt;td&gt;&lt;br&gt;&lt;/td&gt;&lt;td&gt;symbol&lt;br&gt;&lt;/td&gt;&lt;td&gt;varchar(10)&lt;br&gt;&lt;/td&gt;&lt;/tr&gt;&lt;tr&gt;&lt;td&gt;&lt;br&gt;&lt;/td&gt;&lt;td&gt;newSymbol&lt;br&gt;&lt;/td&gt;&lt;td&gt;varchar(10)&lt;br&gt;&lt;/td&gt;&lt;/tr&gt;&lt;tr&gt;&lt;td&gt;&lt;br&gt;&lt;/td&gt;&lt;td&gt;symbolChanged&lt;br&gt;&lt;/td&gt;&lt;td&gt;boolean&lt;br&gt;&lt;/td&gt;&lt;/tr&gt;&lt;/tbody&gt;&lt;/table&gt;" style="verticalAlign=top;align=left;overflow=fill;html=1;whiteSpace=wrap;" vertex="1" parent="1">
          <mxGeometry x="910" y="100" width="270" height="184" as="geometry" />
        </mxCell>
        <mxCell id="pSwf7CjrwYMgXPYzzPIF-10" style="edgeStyle=orthogonalEdgeStyle;rounded=0;orthogonalLoop=1;jettySize=auto;html=1;exitX=0.5;exitY=1;exitDx=0;exitDy=0;" edge="1" parent="1" source="pSwf7CjrwYMgXPYzzPIF-7" target="pSwf7CjrwYMgXPYzzPIF-7">
          <mxGeometry relative="1" as="geometry" />
        </mxCell>
      </root>
    </mxGraphModel>
  </diagram>
</mxfile>
